<svg width="93" height="98" viewBox="0 0 93 98" fill="none" xmlns="http://www.w3.org/2000/svg">
<ellipse cx="46.5369" cy="48.8673" rx="45.7058" ry="48.6987" fill="#FFF5D9"/>
<g clip-path="url(#clip0_879_19715)">
<path d="M39.994 35.8238H53.0789L55.9029 33.4167C56.8643 32.5992 57.2234 31.2722 56.817 30.0338C56.4105 28.7955 55.3544 27.9972 54.1269 27.9972H38.946C37.7185 27.9972 36.6623 28.7972 36.2559 30.0338C35.8494 31.2704 36.2086 32.5992 37.1684 33.4149L39.994 35.8238Z" fill="#FFBB38"/>
<path d="M53.3029 38.4326H39.7708C35.3128 43.0955 31.8457 51.2769 31.8457 57.9991C31.8457 63.8412 34.748 69.7389 41.2317 69.7389H52.2501C57.7886 69.7389 61.228 65.2395 61.228 57.9991C61.228 51.2769 57.7609 43.0955 53.3029 38.4326ZM45.9166 52.7813H47.1571C49.0654 52.7813 50.6177 54.4354 50.6177 56.4685C50.6177 58.2965 49.3804 59.8009 47.7611 60.107V61.4758C47.7611 62.1958 47.2126 62.7802 46.5369 62.7802C45.8611 62.7802 45.3126 62.1958 45.3126 61.4758V60.1731H43.6802C43.0044 60.1731 42.456 59.5887 42.456 58.8687C42.456 58.1486 43.0044 57.5643 43.6802 57.5643H47.1571C47.7154 57.5643 48.1692 57.0807 48.1692 56.4859C48.1692 55.8737 47.7154 55.3902 47.1571 55.3902H45.9166C44.0083 55.3902 42.456 53.7362 42.456 51.703C42.456 49.8751 43.6933 48.3706 45.3126 48.0645V46.694C45.3126 45.974 45.8611 45.3896 46.5369 45.3896C47.2126 45.3896 47.7611 45.974 47.7611 46.694V47.9984H49.3935C50.0693 47.9984 50.6177 48.5828 50.6177 49.3029C50.6177 50.0229 50.0693 50.6073 49.3935 50.6073H45.9166C45.3583 50.6073 44.9045 51.0908 44.9045 51.6856C44.9045 52.2978 45.3583 52.7813 45.9166 52.7813Z" fill="#FFBB38"/>
</g>
<defs>
<clipPath id="clip0_879_19715">
<rect width="39.1764" height="41.7417" fill="white" transform="translate(26.9482 27.9972)"/>
</clipPath>
</defs>
</svg>
