<svg width="459" height="545" viewBox="0 0 459 545" fill="none" xmlns="http://www.w3.org/2000/svg">
<path d="M453.529 32.131L458.586 540.048L36.3538 544.252C36.3538 544.252 200.505 -153.022 31.2967 36.335C-137.912 225.692 453.529 32.131 453.529 32.131Z" fill="url(#paint0_linear_182_2388)"/>
<line opacity="0.8" x1="158" y1="183" x2="158" y2="224" stroke="#B1072B" stroke-opacity="0.56" stroke-width="10"/>
<path d="M149.811 278.692L145.367 257.159H147.965L151.109 274.728L154.527 258.526L157.535 258.731L160.953 273.907L165.396 256.476L167.721 256.681L162.047 279.376H159.654L155.895 262.628L152.408 278.692H149.811ZM169.703 271.993C169.703 270.74 169.885 269.692 170.25 268.849C170.615 267.983 171.07 267.299 171.617 266.798C172.187 266.274 172.813 265.909 173.497 265.704C174.181 265.476 174.841 265.362 175.479 265.362C176.391 265.362 177.211 265.499 177.94 265.772C178.67 266.023 179.285 266.456 179.786 267.071C180.31 267.664 180.709 268.461 180.982 269.464C181.256 270.466 181.393 271.697 181.393 273.155L171.891 274.078C171.959 274.716 172.13 275.263 172.403 275.719C172.7 276.152 173.064 276.505 173.497 276.778C173.93 277.052 174.397 277.245 174.898 277.359C175.4 277.473 175.912 277.53 176.437 277.53C177.302 277.53 178.134 277.405 178.932 277.154C179.729 276.904 180.322 276.596 180.709 276.231L181.324 277.872C181.165 278.1 180.925 278.328 180.606 278.556C180.287 278.784 179.911 278.977 179.479 279.137C179.046 279.319 178.556 279.456 178.009 279.547C177.485 279.661 176.938 279.718 176.368 279.718C175.571 279.718 174.773 279.592 173.976 279.342C173.178 279.091 172.46 278.67 171.822 278.077C171.184 277.485 170.672 276.699 170.284 275.719C169.897 274.716 169.703 273.474 169.703 271.993ZM171.686 272.062L179.205 271.241C179.205 270.125 178.909 269.236 178.316 268.575C177.724 267.892 176.767 267.55 175.445 267.55C174.807 267.573 174.249 267.709 173.771 267.96C173.315 268.211 172.927 268.53 172.608 268.917C172.289 269.282 172.05 269.703 171.891 270.182C171.731 270.66 171.651 271.15 171.651 271.651C171.651 271.834 171.663 271.97 171.686 272.062ZM202.037 265.978L201.559 268.028C201.376 267.937 201.126 267.846 200.807 267.755C200.51 267.641 200.169 267.538 199.781 267.447C199.417 267.356 199.018 267.288 198.585 267.242C198.175 267.174 197.787 267.14 197.423 267.14C196.739 267.14 196.147 267.242 195.646 267.447C195.167 267.652 194.928 268.017 194.928 268.541C194.928 268.928 195.133 269.259 195.543 269.532C195.953 269.806 196.432 270.045 196.979 270.25C197.548 270.432 198.106 270.58 198.653 270.694C199.223 270.808 199.667 270.899 199.986 270.968C200.67 271.173 201.217 271.446 201.627 271.788C202.06 272.107 202.39 272.46 202.618 272.848C202.869 273.212 203.04 273.6 203.131 274.01C203.222 274.42 203.268 274.819 203.268 275.206C203.268 276.026 203.074 276.721 202.687 277.291C202.322 277.838 201.843 278.294 201.251 278.658C200.681 279 200.032 279.251 199.303 279.41C198.596 279.57 197.89 279.649 197.184 279.649C196.09 279.649 195.042 279.501 194.039 279.205C193.059 278.909 192.285 278.51 191.715 278.009L192.535 275.685C192.809 275.912 193.128 276.129 193.492 276.334C193.88 276.516 194.301 276.687 194.757 276.847C195.213 276.983 195.691 277.097 196.192 277.188C196.694 277.257 197.184 277.291 197.662 277.291C198.482 277.291 199.212 277.132 199.85 276.812C200.488 276.493 200.875 275.935 201.012 275.138C201.012 275.001 200.989 274.83 200.943 274.625C200.921 274.397 200.841 274.181 200.704 273.976C200.59 273.771 200.396 273.577 200.123 273.395C199.872 273.212 199.508 273.087 199.029 273.019C198.095 272.882 197.229 272.7 196.432 272.472C195.657 272.244 194.985 271.959 194.415 271.617C193.845 271.275 193.39 270.865 193.048 270.387C192.729 269.885 192.569 269.304 192.569 268.644C192.569 267.368 192.991 266.445 193.834 265.875C194.677 265.305 195.919 265.021 197.56 265.021C198.425 265.021 199.257 265.112 200.055 265.294C200.875 265.476 201.536 265.704 202.037 265.978ZM205.797 279.103V266.593H208.189V279.239L205.797 279.103ZM208.941 263.79L206.549 264.474L204.361 259.278L206.754 258.663L208.941 263.79ZM211.129 264.679L213.248 264.2L213.419 265.704H225.963L227.535 267.481V278.146L226.1 278.351V269.327L224.732 267.481H221.246V278.624H219.264V267.755H213.658L214.82 278.966L212.633 279.239L211.129 264.679ZM242.574 270.899V271.617C242.574 272.916 242.381 273.998 241.993 274.864C241.606 275.73 241.116 276.425 240.523 276.949C239.954 277.451 239.316 277.804 238.609 278.009C237.903 278.214 237.231 278.316 236.593 278.316C235.864 278.316 235.18 278.225 234.542 278.043C233.927 277.861 233.46 277.644 233.141 277.394L233.414 285.05L231.295 285.255V266.661L231.5 265.089C233.186 264.701 234.645 264.508 235.875 264.508C237.994 264.508 239.612 265.043 240.729 266.114C241.868 267.162 242.483 268.757 242.574 270.899ZM232.799 267.481L232.936 274.249C232.958 274.363 233.072 274.5 233.277 274.659C233.505 274.819 233.79 274.978 234.132 275.138C234.496 275.274 234.895 275.4 235.328 275.514C235.761 275.605 236.205 275.65 236.661 275.65C237.094 275.65 237.527 275.582 237.96 275.445C238.416 275.286 238.814 275.024 239.156 274.659C239.521 274.295 239.817 273.805 240.045 273.189C240.273 272.574 240.387 271.811 240.387 270.899C240.387 270.193 240.25 269.578 239.977 269.054C239.726 268.507 239.373 268.062 238.917 267.721C238.484 267.356 237.983 267.094 237.413 266.935C236.866 266.752 236.297 266.661 235.704 266.661C235.18 266.661 234.667 266.729 234.166 266.866C233.665 267.003 233.209 267.208 232.799 267.481ZM244.762 277.188V256.544L247.018 256.407V276.3L249.273 276.847L249.068 279.308L245.309 278.556L244.762 277.188ZM252.35 279.103V266.593H254.742V279.239L252.35 279.103ZM255.494 263.79L253.102 264.474L250.914 259.278L253.307 258.663L255.494 263.79ZM271.285 269.396H263.526V278.419H261.51V269.293H257.34V266.866L261.339 266.935C261.316 266.661 261.305 266.399 261.305 266.148C261.305 265.898 261.305 265.647 261.305 265.396C261.305 264.303 261.339 263.38 261.407 262.628C261.498 261.876 261.612 261.238 261.749 260.714C261.886 260.19 262.034 259.768 262.193 259.449C262.376 259.107 262.558 258.823 262.74 258.595C263.242 257.957 263.811 257.501 264.449 257.228C265.087 256.931 265.737 256.783 266.397 256.783C267.081 256.783 267.753 256.92 268.414 257.193C269.075 257.467 269.667 257.854 270.191 258.355C270.738 258.834 271.194 259.404 271.559 260.064C271.923 260.725 272.151 261.443 272.242 262.218L270.533 263.38C270.419 262.696 270.214 262.092 269.918 261.568C269.645 261.021 269.314 260.566 268.927 260.201C268.562 259.837 268.163 259.563 267.73 259.381C267.298 259.176 266.865 259.073 266.432 259.073C265.999 259.073 265.6 259.164 265.235 259.347C264.871 259.529 264.563 259.905 264.312 260.475C264.062 261.021 263.857 261.819 263.697 262.867C263.561 263.893 263.492 265.271 263.492 267.003L271.285 267.14V269.396ZM279.215 276.915L273.268 266.593L275.113 265.157L280.138 274.215L283.453 264.405L285.367 265.431L278.668 285.118L276.822 283.956L279.215 276.915ZM296.305 277.188V256.544L298.561 256.407V276.3L300.816 276.847L300.611 279.308L296.852 278.556L296.305 277.188ZM308.746 267.003C307.493 267.003 306.502 267.39 305.772 268.165C305.066 268.94 304.713 270.182 304.713 271.891C304.713 272.551 304.804 273.212 304.986 273.873C305.169 274.511 305.431 275.092 305.772 275.616C306.114 276.14 306.524 276.573 307.003 276.915C307.481 277.234 308.017 277.394 308.609 277.394C309.225 277.394 309.783 277.245 310.284 276.949C310.785 276.653 311.207 276.277 311.549 275.821C311.891 275.343 312.153 274.819 312.335 274.249C312.54 273.657 312.643 273.087 312.643 272.54C312.643 270.535 312.278 269.111 311.549 268.268C310.842 267.424 309.908 267.003 308.746 267.003ZM308.541 264.679C309.68 264.679 310.649 264.884 311.446 265.294C312.244 265.704 312.893 266.274 313.395 267.003C313.896 267.709 314.26 268.541 314.488 269.498C314.716 270.432 314.83 271.446 314.83 272.54C314.785 273.771 314.579 274.841 314.215 275.753C313.873 276.642 313.417 277.382 312.848 277.975C312.278 278.567 311.629 279 310.899 279.273C310.193 279.57 309.452 279.718 308.678 279.718C307.652 279.718 306.752 279.513 305.978 279.103C305.226 278.692 304.588 278.146 304.063 277.462C303.562 276.756 303.175 275.958 302.901 275.069C302.651 274.158 302.525 273.201 302.525 272.198C302.525 271.127 302.662 270.136 302.936 269.225C303.232 268.29 303.631 267.493 304.132 266.832C304.656 266.148 305.283 265.624 306.012 265.26C306.764 264.872 307.607 264.679 308.541 264.679ZM328.844 268.917L331.031 278.214L328.98 278.966L327.75 273.155C327.59 273.793 327.34 274.454 326.998 275.138C326.679 275.821 326.269 276.448 325.768 277.018C325.289 277.564 324.708 278.02 324.024 278.385C323.364 278.727 322.612 278.897 321.769 278.897C320.265 278.897 319.114 278.419 318.316 277.462C317.542 276.482 317.154 275.138 317.154 273.429C317.154 272.449 317.302 271.435 317.599 270.387C317.895 269.316 318.339 268.347 318.932 267.481C319.524 266.616 320.265 265.898 321.153 265.328C322.065 264.758 323.124 264.474 324.332 264.474C325.038 264.474 325.654 264.633 326.178 264.952C326.725 265.248 327.18 265.624 327.545 266.08C327.91 266.536 328.194 267.026 328.399 267.55C328.604 268.051 328.753 268.507 328.844 268.917ZM324.674 266.935C324.514 266.889 324.355 266.855 324.195 266.832C324.059 266.809 323.91 266.798 323.751 266.798C323.045 266.798 322.407 267.014 321.837 267.447C321.29 267.857 320.823 268.382 320.436 269.02C320.071 269.658 319.786 270.353 319.581 271.104C319.399 271.856 319.308 272.551 319.308 273.189C319.308 274.192 319.524 275.001 319.957 275.616C320.39 276.231 321.074 276.539 322.008 276.539C322.646 276.539 323.238 276.334 323.785 275.924C324.332 275.491 324.799 274.955 325.187 274.317C325.574 273.679 325.87 272.984 326.075 272.232C326.303 271.458 326.417 270.74 326.417 270.079C326.417 269.35 326.269 268.712 325.973 268.165C325.699 267.595 325.266 267.185 324.674 266.935ZM342.926 267.892H336.295V278.829L334.586 279.034V264.337L336.227 263.995V265.704L344.156 265.226L345.182 267.276L346.207 278.419L344.02 279.034L342.926 267.892ZM145.23 308.679L147.35 308.2L147.521 309.704H160.064L161.637 311.481V322.146L160.201 322.351V313.327L158.834 311.481H155.348V322.624H153.365V311.755H147.76L148.922 322.966L146.734 323.239L145.23 308.679ZM176.812 312.917L179 322.214L176.949 322.966L175.719 317.155C175.559 317.793 175.309 318.454 174.967 319.138C174.648 319.821 174.238 320.448 173.736 321.018C173.258 321.564 172.677 322.02 171.993 322.385C171.332 322.727 170.58 322.897 169.737 322.897C168.233 322.897 167.083 322.419 166.285 321.462C165.51 320.482 165.123 319.138 165.123 317.429C165.123 316.449 165.271 315.435 165.567 314.387C165.864 313.316 166.308 312.347 166.9 311.481C167.493 310.616 168.233 309.898 169.122 309.328C170.034 308.758 171.093 308.474 172.301 308.474C173.007 308.474 173.622 308.633 174.146 308.952C174.693 309.248 175.149 309.624 175.514 310.08C175.878 310.536 176.163 311.026 176.368 311.55C176.573 312.051 176.721 312.507 176.812 312.917ZM172.643 310.935C172.483 310.889 172.324 310.855 172.164 310.832C172.027 310.809 171.879 310.798 171.72 310.798C171.013 310.798 170.375 311.014 169.806 311.447C169.259 311.857 168.792 312.382 168.404 313.02C168.04 313.658 167.755 314.353 167.55 315.104C167.368 315.856 167.276 316.551 167.276 317.189C167.276 318.192 167.493 319.001 167.926 319.616C168.359 320.231 169.042 320.539 169.977 320.539C170.615 320.539 171.207 320.334 171.754 319.924C172.301 319.491 172.768 318.955 173.155 318.317C173.543 317.679 173.839 316.984 174.044 316.232C174.272 315.458 174.386 314.74 174.386 314.079C174.386 313.35 174.238 312.712 173.941 312.165C173.668 311.595 173.235 311.185 172.643 310.935ZM190.895 311.892H184.264V322.829L182.555 323.034V308.337L184.195 307.995V309.704L192.125 309.226L193.15 311.276L194.176 322.419L191.988 323.034L190.895 311.892ZM208.326 312.917L210.514 322.214L208.463 322.966L207.232 317.155C207.073 317.793 206.822 318.454 206.48 319.138C206.161 319.821 205.751 320.448 205.25 321.018C204.771 321.564 204.19 322.02 203.507 322.385C202.846 322.727 202.094 322.897 201.251 322.897C199.747 322.897 198.596 322.419 197.799 321.462C197.024 320.482 196.637 319.138 196.637 317.429C196.637 316.449 196.785 315.435 197.081 314.387C197.377 313.316 197.822 312.347 198.414 311.481C199.007 310.616 199.747 309.898 200.636 309.328C201.547 308.758 202.607 308.474 203.814 308.474C204.521 308.474 205.136 308.633 205.66 308.952C206.207 309.248 206.663 309.624 207.027 310.08C207.392 310.536 207.677 311.026 207.882 311.55C208.087 312.051 208.235 312.507 208.326 312.917ZM204.156 310.935C203.997 310.889 203.837 310.855 203.678 310.832C203.541 310.809 203.393 310.798 203.233 310.798C202.527 310.798 201.889 311.014 201.319 311.447C200.772 311.857 200.305 312.382 199.918 313.02C199.553 313.658 199.269 314.353 199.063 315.104C198.881 315.856 198.79 316.551 198.79 317.189C198.79 318.192 199.007 319.001 199.439 319.616C199.872 320.231 200.556 320.539 201.49 320.539C202.128 320.539 202.721 320.334 203.268 319.924C203.814 319.491 204.282 318.955 204.669 318.317C205.056 317.679 205.353 316.984 205.558 316.232C205.785 315.458 205.899 314.74 205.899 314.079C205.899 313.35 205.751 312.712 205.455 312.165C205.182 311.595 204.749 311.185 204.156 310.935ZM214.923 317.771C215.082 318.477 215.39 318.978 215.846 319.274C216.301 319.571 216.814 319.719 217.384 319.719C217.999 319.719 218.648 319.571 219.332 319.274C220.038 318.978 220.688 318.591 221.28 318.112C221.873 317.611 222.363 317.041 222.75 316.403C223.16 315.765 223.365 315.104 223.365 314.421C223.365 313.601 223.103 312.917 222.579 312.37C222.078 311.823 221.44 311.55 220.665 311.55C220.05 311.573 219.4 311.732 218.717 312.028C218.033 312.302 217.395 312.678 216.803 313.156C216.233 313.635 215.755 314.193 215.367 314.831C214.98 315.446 214.786 316.118 214.786 316.848C214.786 317.189 214.832 317.497 214.923 317.771ZM223.058 329.46H212.53V326.794H221.827L223.263 325.563L223.126 319.479C222.534 320.3 221.713 320.938 220.665 321.394C219.617 321.826 218.546 322.043 217.452 322.043C216.039 322.043 214.866 321.599 213.932 320.71C213.02 319.799 212.564 318.477 212.564 316.745C212.564 315.697 212.792 314.729 213.248 313.84C213.727 312.928 214.353 312.154 215.128 311.516C215.903 310.855 216.769 310.342 217.726 309.978C218.705 309.613 219.708 309.431 220.733 309.431C221.827 309.431 222.807 309.704 223.673 310.251C224.562 310.775 225.154 311.618 225.45 312.78V326.862L223.058 329.46ZM227.945 315.993C227.945 314.74 228.128 313.692 228.492 312.849C228.857 311.983 229.312 311.299 229.859 310.798C230.429 310.274 231.056 309.909 231.739 309.704C232.423 309.476 233.084 309.362 233.722 309.362C234.633 309.362 235.453 309.499 236.183 309.772C236.912 310.023 237.527 310.456 238.028 311.071C238.552 311.664 238.951 312.461 239.225 313.464C239.498 314.466 239.635 315.697 239.635 317.155L230.133 318.078C230.201 318.716 230.372 319.263 230.646 319.719C230.942 320.152 231.306 320.505 231.739 320.778C232.172 321.052 232.639 321.245 233.141 321.359C233.642 321.473 234.155 321.53 234.679 321.53C235.545 321.53 236.376 321.405 237.174 321.154C237.971 320.904 238.564 320.596 238.951 320.231L239.566 321.872C239.407 322.1 239.168 322.328 238.849 322.556C238.53 322.784 238.154 322.977 237.721 323.137C237.288 323.319 236.798 323.456 236.251 323.547C235.727 323.661 235.18 323.718 234.61 323.718C233.813 323.718 233.015 323.592 232.218 323.342C231.42 323.091 230.702 322.67 230.064 322.077C229.426 321.485 228.914 320.699 228.526 319.719C228.139 318.716 227.945 317.474 227.945 315.993ZM229.928 316.062L237.447 315.241C237.447 314.125 237.151 313.236 236.559 312.575C235.966 311.892 235.009 311.55 233.688 311.55C233.049 311.573 232.491 311.709 232.013 311.96C231.557 312.211 231.17 312.53 230.851 312.917C230.532 313.282 230.292 313.703 230.133 314.182C229.973 314.66 229.894 315.15 229.894 315.651C229.894 315.834 229.905 315.97 229.928 316.062ZM241.754 308.679L243.873 308.2L244.044 309.704H256.588L258.16 311.481V322.146L256.725 322.351V313.327L255.357 311.481H251.871V322.624H249.889V311.755H244.283L245.445 322.966L243.258 323.239L241.754 308.679ZM261.031 315.993C261.031 314.74 261.214 313.692 261.578 312.849C261.943 311.983 262.398 311.299 262.945 310.798C263.515 310.274 264.142 309.909 264.825 309.704C265.509 309.476 266.17 309.362 266.808 309.362C267.719 309.362 268.539 309.499 269.269 309.772C269.998 310.023 270.613 310.456 271.114 311.071C271.638 311.664 272.037 312.461 272.311 313.464C272.584 314.466 272.721 315.697 272.721 317.155L263.219 318.078C263.287 318.716 263.458 319.263 263.731 319.719C264.028 320.152 264.392 320.505 264.825 320.778C265.258 321.052 265.725 321.245 266.227 321.359C266.728 321.473 267.241 321.53 267.765 321.53C268.631 321.53 269.462 321.405 270.26 321.154C271.057 320.904 271.65 320.596 272.037 320.231L272.652 321.872C272.493 322.1 272.254 322.328 271.935 322.556C271.616 322.784 271.24 322.977 270.807 323.137C270.374 323.319 269.884 323.456 269.337 323.547C268.813 323.661 268.266 323.718 267.696 323.718C266.899 323.718 266.101 323.592 265.304 323.342C264.506 323.091 263.788 322.67 263.15 322.077C262.512 321.485 262 320.699 261.612 319.719C261.225 318.716 261.031 317.474 261.031 315.993ZM263.014 316.062L270.533 315.241C270.533 314.125 270.237 313.236 269.645 312.575C269.052 311.892 268.095 311.55 266.773 311.55C266.135 311.573 265.577 311.709 265.099 311.96C264.643 312.211 264.256 312.53 263.937 312.917C263.618 313.282 263.378 313.703 263.219 314.182C263.059 314.66 262.979 315.15 262.979 315.651C262.979 315.834 262.991 315.97 263.014 316.062ZM284.205 311.892H277.574V322.829L275.865 323.034V308.337L277.506 307.995V309.704L285.436 309.226L286.461 311.276L287.486 322.419L285.299 323.034L284.205 311.892ZM292.135 322.282V311.926H288.648L288.854 309.431H292.613V302.458H294.938V309.567H300.543V312.028H294.698V320.915L299.859 319.958L300.201 322.282L293.365 323.718L292.135 322.282ZM320.777 313.532L317.838 322.966L314.967 323.239L310.387 309.431L312.369 308.747L316.334 320.163L319.82 309.431H322.076L324.537 319.753L327.682 309.226L329.732 309.636L325.562 323.376H323.238L320.777 313.532ZM332.262 323.103V310.593H334.654V323.239L332.262 323.103ZM335.406 307.79L333.014 308.474L330.826 303.278L333.219 302.663L335.406 307.79ZM340.396 322.282V311.926H336.91L337.115 309.431H340.875V302.458H343.199V309.567H348.805V312.028H342.96V320.915L348.121 319.958L348.463 322.282L341.627 323.718L340.396 322.282ZM359.674 312.028H353.18V323.034L351.061 323.239V301.706H353.111V309.841H360.152L361.725 310.593L363.092 323.034L360.904 323.171L359.674 312.028ZM157.398 358.899V359.617C157.398 360.916 157.205 361.998 156.817 362.864C156.43 363.73 155.94 364.425 155.348 364.949C154.778 365.451 154.14 365.804 153.434 366.009C152.727 366.214 152.055 366.316 151.417 366.316C150.688 366.316 150.004 366.225 149.366 366.043C148.751 365.861 148.284 365.644 147.965 365.394L148.238 373.05L146.119 373.255V354.661L146.324 353.089C148.01 352.701 149.469 352.508 150.699 352.508C152.818 352.508 154.436 353.043 155.553 354.114C156.692 355.162 157.307 356.757 157.398 358.899ZM147.623 355.481L147.76 362.249C147.783 362.363 147.896 362.5 148.102 362.659C148.329 362.819 148.614 362.978 148.956 363.138C149.321 363.274 149.719 363.4 150.152 363.514C150.585 363.605 151.03 363.65 151.485 363.65C151.918 363.65 152.351 363.582 152.784 363.445C153.24 363.286 153.639 363.024 153.98 362.659C154.345 362.295 154.641 361.805 154.869 361.189C155.097 360.574 155.211 359.811 155.211 358.899C155.211 358.193 155.074 357.578 154.801 357.054C154.55 356.507 154.197 356.062 153.741 355.721C153.308 355.356 152.807 355.094 152.237 354.935C151.69 354.752 151.121 354.661 150.528 354.661C150.004 354.661 149.492 354.729 148.99 354.866C148.489 355.003 148.033 355.208 147.623 355.481ZM160.953 367.786L159.791 352.747L161.91 352.474L162.389 359.104L169.703 354.183L170.66 356.097L162.73 361.839V367.581L160.953 367.786ZM172.164 359.993C172.164 358.74 172.346 357.692 172.711 356.849C173.076 355.983 173.531 355.299 174.078 354.798C174.648 354.274 175.274 353.909 175.958 353.704C176.642 353.476 177.302 353.362 177.94 353.362C178.852 353.362 179.672 353.499 180.401 353.772C181.131 354.023 181.746 354.456 182.247 355.071C182.771 355.664 183.17 356.461 183.443 357.464C183.717 358.466 183.854 359.697 183.854 361.155L174.352 362.078C174.42 362.716 174.591 363.263 174.864 363.719C175.16 364.152 175.525 364.505 175.958 364.778C176.391 365.052 176.858 365.245 177.359 365.359C177.861 365.473 178.373 365.53 178.897 365.53C179.763 365.53 180.595 365.405 181.393 365.154C182.19 364.904 182.783 364.596 183.17 364.231L183.785 365.872C183.626 366.1 183.386 366.328 183.067 366.556C182.748 366.784 182.372 366.977 181.939 367.137C181.507 367.319 181.017 367.456 180.47 367.547C179.946 367.661 179.399 367.718 178.829 367.718C178.032 367.718 177.234 367.592 176.437 367.342C175.639 367.091 174.921 366.67 174.283 366.077C173.645 365.485 173.132 364.699 172.745 363.719C172.358 362.716 172.164 361.474 172.164 359.993ZM174.146 360.062L181.666 359.241C181.666 358.125 181.37 357.236 180.777 356.575C180.185 355.892 179.228 355.55 177.906 355.55C177.268 355.573 176.71 355.709 176.231 355.96C175.776 356.211 175.388 356.53 175.069 356.917C174.75 357.282 174.511 357.703 174.352 358.182C174.192 358.66 174.112 359.15 174.112 359.651C174.112 359.834 174.124 359.97 174.146 360.062ZM197.594 354.524L196.979 356.712C196.318 356.119 195.611 355.687 194.859 355.413C194.107 355.117 193.367 354.969 192.638 354.969C192.022 354.969 191.43 355.083 190.86 355.311C190.313 355.516 189.835 355.835 189.425 356.268C189.015 356.701 188.684 357.236 188.434 357.874C188.206 358.512 188.092 359.241 188.092 360.062C188.092 361.041 188.217 361.862 188.468 362.522C188.741 363.183 189.094 363.719 189.527 364.129C189.96 364.539 190.45 364.835 190.997 365.018C191.567 365.2 192.148 365.291 192.74 365.291C193.264 365.268 193.777 365.166 194.278 364.983C194.802 364.778 195.27 364.505 195.68 364.163C196.09 363.799 196.432 363.377 196.705 362.898C196.979 362.397 197.138 361.839 197.184 361.224L199.098 362.181C199.052 363.092 198.836 363.89 198.448 364.573C198.084 365.257 197.605 365.826 197.013 366.282C196.443 366.738 195.782 367.08 195.03 367.308C194.278 367.535 193.504 367.649 192.706 367.649C191.863 367.649 191.031 367.49 190.211 367.171C189.391 366.875 188.661 366.419 188.023 365.804C187.385 365.188 186.873 364.414 186.485 363.479C186.098 362.522 185.904 361.406 185.904 360.13C185.904 359.059 186.064 358.079 186.383 357.19C186.702 356.279 187.146 355.504 187.716 354.866C188.285 354.205 188.958 353.693 189.732 353.328C190.53 352.964 191.396 352.781 192.33 352.781C193.128 352.781 193.959 352.929 194.825 353.226C195.714 353.499 196.637 353.932 197.594 354.524ZM201.9 367.103V354.593H204.293V367.239L201.9 367.103ZM205.045 351.79L202.652 352.474L200.465 347.278L202.857 346.663L205.045 351.79ZM216.871 353.978L216.393 356.028C216.21 355.937 215.96 355.846 215.641 355.755C215.344 355.641 215.003 355.538 214.615 355.447C214.251 355.356 213.852 355.288 213.419 355.242C213.009 355.174 212.621 355.14 212.257 355.14C211.573 355.14 210.981 355.242 210.479 355.447C210.001 355.652 209.762 356.017 209.762 356.541C209.762 356.928 209.967 357.259 210.377 357.532C210.787 357.806 211.266 358.045 211.812 358.25C212.382 358.432 212.94 358.58 213.487 358.694C214.057 358.808 214.501 358.899 214.82 358.968C215.504 359.173 216.051 359.446 216.461 359.788C216.894 360.107 217.224 360.46 217.452 360.848C217.703 361.212 217.874 361.6 217.965 362.01C218.056 362.42 218.102 362.819 218.102 363.206C218.102 364.026 217.908 364.721 217.521 365.291C217.156 365.838 216.677 366.294 216.085 366.658C215.515 367 214.866 367.251 214.137 367.41C213.43 367.57 212.724 367.649 212.018 367.649C210.924 367.649 209.876 367.501 208.873 367.205C207.893 366.909 207.118 366.51 206.549 366.009L207.369 363.685C207.643 363.912 207.962 364.129 208.326 364.334C208.714 364.516 209.135 364.687 209.591 364.847C210.047 364.983 210.525 365.097 211.026 365.188C211.528 365.257 212.018 365.291 212.496 365.291C213.316 365.291 214.046 365.132 214.684 364.812C215.322 364.493 215.709 363.935 215.846 363.138C215.846 363.001 215.823 362.83 215.777 362.625C215.755 362.397 215.675 362.181 215.538 361.976C215.424 361.771 215.23 361.577 214.957 361.395C214.706 361.212 214.342 361.087 213.863 361.019C212.929 360.882 212.063 360.7 211.266 360.472C210.491 360.244 209.819 359.959 209.249 359.617C208.679 359.275 208.224 358.865 207.882 358.387C207.563 357.885 207.403 357.304 207.403 356.644C207.403 355.368 207.825 354.445 208.668 353.875C209.511 353.305 210.753 353.021 212.394 353.021C213.259 353.021 214.091 353.112 214.889 353.294C215.709 353.476 216.37 353.704 216.871 353.978ZM219.742 359.993C219.742 358.74 219.924 357.692 220.289 356.849C220.654 355.983 221.109 355.299 221.656 354.798C222.226 354.274 222.853 353.909 223.536 353.704C224.22 353.476 224.881 353.362 225.519 353.362C226.43 353.362 227.25 353.499 227.979 353.772C228.709 354.023 229.324 354.456 229.825 355.071C230.349 355.664 230.748 356.461 231.021 357.464C231.295 358.466 231.432 359.697 231.432 361.155L221.93 362.078C221.998 362.716 222.169 363.263 222.442 363.719C222.739 364.152 223.103 364.505 223.536 364.778C223.969 365.052 224.436 365.245 224.938 365.359C225.439 365.473 225.951 365.53 226.476 365.53C227.341 365.53 228.173 365.405 228.971 365.154C229.768 364.904 230.361 364.596 230.748 364.231L231.363 365.872C231.204 366.1 230.965 366.328 230.646 366.556C230.326 366.784 229.951 366.977 229.518 367.137C229.085 367.319 228.595 367.456 228.048 367.547C227.524 367.661 226.977 367.718 226.407 367.718C225.61 367.718 224.812 367.592 224.015 367.342C223.217 367.091 222.499 366.67 221.861 366.077C221.223 365.485 220.711 364.699 220.323 363.719C219.936 362.716 219.742 361.474 219.742 359.993ZM221.725 360.062L229.244 359.241C229.244 358.125 228.948 357.236 228.355 356.575C227.763 355.892 226.806 355.55 225.484 355.55C224.846 355.573 224.288 355.709 223.81 355.96C223.354 356.211 222.966 356.53 222.647 356.917C222.328 357.282 222.089 357.703 221.93 358.182C221.77 358.66 221.69 359.15 221.69 359.651C221.69 359.834 221.702 359.97 221.725 360.062ZM237.037 360.95L239.84 363.685L235.67 370.384L233.961 369.085L236.969 364.3L235.465 362.659L237.037 360.95ZM254.332 366.282V355.926H250.846L251.051 353.431H254.811V346.458H257.135V353.567H262.74V356.028H256.896V364.915L262.057 363.958L262.398 366.282L255.562 367.718L254.332 366.282ZM266.09 367.786L264.928 352.747L267.047 352.474L267.525 359.104L274.84 354.183L275.797 356.097L267.867 361.839V367.581L266.09 367.786ZM289.605 356.917L291.793 366.214L289.742 366.966L288.512 361.155C288.352 361.793 288.102 362.454 287.76 363.138C287.441 363.821 287.031 364.448 286.529 365.018C286.051 365.564 285.47 366.02 284.786 366.385C284.125 366.727 283.373 366.897 282.53 366.897C281.026 366.897 279.876 366.419 279.078 365.462C278.303 364.482 277.916 363.138 277.916 361.429C277.916 360.449 278.064 359.435 278.36 358.387C278.657 357.316 279.101 356.347 279.693 355.481C280.286 354.616 281.026 353.898 281.915 353.328C282.826 352.758 283.886 352.474 285.094 352.474C285.8 352.474 286.415 352.633 286.939 352.952C287.486 353.248 287.942 353.624 288.307 354.08C288.671 354.536 288.956 355.026 289.161 355.55C289.366 356.051 289.514 356.507 289.605 356.917ZM285.436 354.935C285.276 354.889 285.117 354.855 284.957 354.832C284.82 354.809 284.672 354.798 284.513 354.798C283.806 354.798 283.168 355.014 282.599 355.447C282.052 355.857 281.585 356.382 281.197 357.02C280.833 357.658 280.548 358.353 280.343 359.104C280.16 359.856 280.069 360.551 280.069 361.189C280.069 362.192 280.286 363.001 280.719 363.616C281.152 364.231 281.835 364.539 282.77 364.539C283.408 364.539 284 364.334 284.547 363.924C285.094 363.491 285.561 362.955 285.948 362.317C286.336 361.679 286.632 360.984 286.837 360.232C287.065 359.458 287.179 358.74 287.179 358.079C287.179 357.35 287.031 356.712 286.734 356.165C286.461 355.595 286.028 355.185 285.436 354.935ZM303.688 355.892H297.057V366.829L295.348 367.034V352.337L296.988 351.995V353.704L304.918 353.226L305.943 355.276L306.969 366.419L304.781 367.034L303.688 355.892ZM318.453 353.978L317.975 356.028C317.792 355.937 317.542 355.846 317.223 355.755C316.926 355.641 316.585 355.538 316.197 355.447C315.833 355.356 315.434 355.288 315.001 355.242C314.591 355.174 314.203 355.14 313.839 355.14C313.155 355.14 312.563 355.242 312.062 355.447C311.583 355.652 311.344 356.017 311.344 356.541C311.344 356.928 311.549 357.259 311.959 357.532C312.369 357.806 312.848 358.045 313.395 358.25C313.964 358.432 314.522 358.58 315.069 358.694C315.639 358.808 316.083 358.899 316.402 358.968C317.086 359.173 317.633 359.446 318.043 359.788C318.476 360.107 318.806 360.46 319.034 360.848C319.285 361.212 319.456 361.6 319.547 362.01C319.638 362.42 319.684 362.819 319.684 363.206C319.684 364.026 319.49 364.721 319.103 365.291C318.738 365.838 318.259 366.294 317.667 366.658C317.097 367 316.448 367.251 315.719 367.41C315.012 367.57 314.306 367.649 313.6 367.649C312.506 367.649 311.458 367.501 310.455 367.205C309.475 366.909 308.701 366.51 308.131 366.009L308.951 363.685C309.225 363.912 309.544 364.129 309.908 364.334C310.296 364.516 310.717 364.687 311.173 364.847C311.629 364.983 312.107 365.097 312.608 365.188C313.11 365.257 313.6 365.291 314.078 365.291C314.898 365.291 315.628 365.132 316.266 364.812C316.904 364.493 317.291 363.935 317.428 363.138C317.428 363.001 317.405 362.83 317.359 362.625C317.337 362.397 317.257 362.181 317.12 361.976C317.006 361.771 316.812 361.577 316.539 361.395C316.288 361.212 315.924 361.087 315.445 361.019C314.511 360.882 313.645 360.7 312.848 360.472C312.073 360.244 311.401 359.959 310.831 359.617C310.261 359.275 309.806 358.865 309.464 358.387C309.145 357.885 308.985 357.304 308.985 356.644C308.985 355.368 309.407 354.445 310.25 353.875C311.093 353.305 312.335 353.021 313.976 353.021C314.841 353.021 315.673 353.112 316.471 353.294C317.291 353.476 317.952 353.704 318.453 353.978ZM333.492 358.899V359.617C333.492 360.916 333.299 361.998 332.911 362.864C332.524 363.73 332.034 364.425 331.441 364.949C330.872 365.451 330.234 365.804 329.527 366.009C328.821 366.214 328.149 366.316 327.511 366.316C326.782 366.316 326.098 366.225 325.46 366.043C324.845 365.861 324.378 365.644 324.059 365.394L324.332 373.05L322.213 373.255V354.661L322.418 353.089C324.104 352.701 325.562 352.508 326.793 352.508C328.912 352.508 330.53 353.043 331.646 354.114C332.786 355.162 333.401 356.757 333.492 358.899ZM323.717 355.481L323.854 362.249C323.876 362.363 323.99 362.5 324.195 362.659C324.423 362.819 324.708 362.978 325.05 363.138C325.414 363.274 325.813 363.4 326.246 363.514C326.679 363.605 327.123 363.65 327.579 363.65C328.012 363.65 328.445 363.582 328.878 363.445C329.334 363.286 329.732 363.024 330.074 362.659C330.439 362.295 330.735 361.805 330.963 361.189C331.191 360.574 331.305 359.811 331.305 358.899C331.305 358.193 331.168 357.578 330.895 357.054C330.644 356.507 330.291 356.062 329.835 355.721C329.402 355.356 328.901 355.094 328.331 354.935C327.784 354.752 327.215 354.661 326.622 354.661C326.098 354.661 325.585 354.729 325.084 354.866C324.583 355.003 324.127 355.208 323.717 355.481ZM347.643 356.917L349.83 366.214L347.779 366.966L346.549 361.155C346.389 361.793 346.139 362.454 345.797 363.138C345.478 363.821 345.068 364.448 344.566 365.018C344.088 365.564 343.507 366.02 342.823 366.385C342.162 366.727 341.41 366.897 340.567 366.897C339.063 366.897 337.913 366.419 337.115 365.462C336.34 364.482 335.953 363.138 335.953 361.429C335.953 360.449 336.101 359.435 336.397 358.387C336.694 357.316 337.138 356.347 337.73 355.481C338.323 354.616 339.063 353.898 339.952 353.328C340.864 352.758 341.923 352.474 343.131 352.474C343.837 352.474 344.452 352.633 344.977 352.952C345.523 353.248 345.979 353.624 346.344 354.08C346.708 354.536 346.993 355.026 347.198 355.55C347.403 356.051 347.551 356.507 347.643 356.917ZM343.473 354.935C343.313 354.889 343.154 354.855 342.994 354.832C342.857 354.809 342.709 354.798 342.55 354.798C341.843 354.798 341.205 355.014 340.636 355.447C340.089 355.857 339.622 356.382 339.234 357.02C338.87 357.658 338.585 358.353 338.38 359.104C338.198 359.856 338.106 360.551 338.106 361.189C338.106 362.192 338.323 363.001 338.756 363.616C339.189 364.231 339.872 364.539 340.807 364.539C341.445 364.539 342.037 364.334 342.584 363.924C343.131 363.491 343.598 362.955 343.985 362.317C344.373 361.679 344.669 360.984 344.874 360.232C345.102 359.458 345.216 358.74 345.216 358.079C345.216 357.35 345.068 356.712 344.771 356.165C344.498 355.595 344.065 355.185 343.473 354.935ZM354.068 367.786L352.906 352.747L355.025 352.474L355.504 359.104L362.818 354.183L363.775 356.097L355.846 361.839V367.581L354.068 367.786ZM365.279 359.993C365.279 358.74 365.462 357.692 365.826 356.849C366.191 355.983 366.646 355.299 367.193 354.798C367.763 354.274 368.39 353.909 369.073 353.704C369.757 353.476 370.418 353.362 371.056 353.362C371.967 353.362 372.787 353.499 373.517 353.772C374.246 354.023 374.861 354.456 375.362 355.071C375.886 355.664 376.285 356.461 376.559 357.464C376.832 358.466 376.969 359.697 376.969 361.155L367.467 362.078C367.535 362.716 367.706 363.263 367.979 363.719C368.276 364.152 368.64 364.505 369.073 364.778C369.506 365.052 369.973 365.245 370.475 365.359C370.976 365.473 371.489 365.53 372.013 365.53C372.879 365.53 373.71 365.405 374.508 365.154C375.305 364.904 375.898 364.596 376.285 364.231L376.9 365.872C376.741 366.1 376.502 366.328 376.183 366.556C375.864 366.784 375.488 366.977 375.055 367.137C374.622 367.319 374.132 367.456 373.585 367.547C373.061 367.661 372.514 367.718 371.944 367.718C371.147 367.718 370.349 367.592 369.552 367.342C368.754 367.091 368.036 366.67 367.398 366.077C366.76 365.485 366.248 364.699 365.86 363.719C365.473 362.716 365.279 361.474 365.279 359.993ZM367.262 360.062L374.781 359.241C374.781 358.125 374.485 357.236 373.893 356.575C373.3 355.892 372.343 355.55 371.021 355.55C370.383 355.573 369.825 355.709 369.347 355.96C368.891 356.211 368.504 356.53 368.185 356.917C367.866 357.282 367.626 357.703 367.467 358.182C367.307 358.66 367.228 359.15 367.228 359.651C367.228 359.834 367.239 359.97 367.262 360.062ZM388.453 355.892H381.822V366.829L380.113 367.034V352.337L381.754 351.995V353.704L389.684 353.226L390.709 355.276L391.734 366.419L389.547 367.034L388.453 355.892ZM396.383 366.282V355.926H392.896L393.102 353.431H396.861V346.458H399.186V353.567H404.791V356.028H398.946V364.915L404.107 363.958L404.449 366.282L397.613 367.718L396.383 366.282ZM409.918 360.95L412.721 363.685L408.551 370.384L406.842 369.085L409.85 364.3L408.346 362.659L409.918 360.95ZM157.535 400.917L159.723 410.214L157.672 410.966L156.441 405.155C156.282 405.793 156.031 406.454 155.689 407.138C155.37 407.821 154.96 408.448 154.459 409.018C153.98 409.564 153.399 410.02 152.716 410.385C152.055 410.727 151.303 410.897 150.46 410.897C148.956 410.897 147.805 410.419 147.008 409.462C146.233 408.482 145.846 407.138 145.846 405.429C145.846 404.449 145.994 403.435 146.29 402.387C146.586 401.316 147.031 400.347 147.623 399.481C148.215 398.616 148.956 397.898 149.845 397.328C150.756 396.758 151.816 396.474 153.023 396.474C153.73 396.474 154.345 396.633 154.869 396.952C155.416 397.248 155.872 397.624 156.236 398.08C156.601 398.536 156.886 399.026 157.091 399.55C157.296 400.051 157.444 400.507 157.535 400.917ZM153.365 398.935C153.206 398.889 153.046 398.855 152.887 398.832C152.75 398.809 152.602 398.798 152.442 398.798C151.736 398.798 151.098 399.014 150.528 399.447C149.981 399.857 149.514 400.382 149.127 401.02C148.762 401.658 148.478 402.353 148.272 403.104C148.09 403.856 147.999 404.551 147.999 405.189C147.999 406.192 148.215 407.001 148.648 407.616C149.081 408.231 149.765 408.539 150.699 408.539C151.337 408.539 151.93 408.334 152.477 407.924C153.023 407.491 153.491 406.955 153.878 406.317C154.265 405.679 154.562 404.984 154.767 404.232C154.994 403.458 155.108 402.74 155.108 402.079C155.108 401.35 154.96 400.712 154.664 400.165C154.391 399.595 153.958 399.185 153.365 398.935ZM171.617 399.892H164.986V410.829L163.277 411.034V396.337L164.918 395.995V397.704L172.848 397.226L173.873 399.276L174.898 410.419L172.711 411.034L171.617 399.892ZM188.707 387.724V409.735L187.818 410.829C187.066 411.057 186.36 411.216 185.699 411.308C185.038 411.399 184.412 411.444 183.819 411.444C182.429 411.444 181.256 411.228 180.299 410.795C179.365 410.362 178.601 409.792 178.009 409.086C177.416 408.38 176.983 407.593 176.71 406.728C176.459 405.862 176.334 404.984 176.334 404.096C176.334 402.842 176.528 401.783 176.915 400.917C177.302 400.028 177.804 399.299 178.419 398.729C179.057 398.16 179.763 397.75 180.538 397.499C181.336 397.226 182.145 397.089 182.965 397.089C184.309 397.089 185.517 397.385 186.588 397.978L186.52 387.655L188.707 387.724ZM186.451 400.985C185.927 400.507 185.357 400.154 184.742 399.926C184.127 399.675 183.5 399.55 182.862 399.55C182.315 399.55 181.78 399.652 181.256 399.857C180.755 400.04 180.31 400.325 179.923 400.712C179.535 401.076 179.216 401.544 178.966 402.113C178.738 402.66 178.624 403.31 178.624 404.062C178.624 404.927 178.772 405.668 179.068 406.283C179.365 406.898 179.752 407.4 180.23 407.787C180.732 408.174 181.301 408.471 181.939 408.676C182.6 408.858 183.284 408.949 183.99 408.949C184.902 408.949 185.722 408.778 186.451 408.437V400.985ZM200.67 396.679L202.584 397.157C202.379 398.319 202.208 399.436 202.071 400.507C201.957 401.578 201.9 402.58 201.9 403.515C201.9 404.381 201.946 405.155 202.037 405.839C202.151 406.522 202.333 407.115 202.584 407.616C202.835 408.118 203.165 408.505 203.575 408.778C204.008 409.029 204.544 409.154 205.182 409.154C205.615 409.154 206.025 409.04 206.412 408.812C206.822 408.562 207.187 408.163 207.506 407.616C207.848 407.069 208.121 406.352 208.326 405.463C208.531 404.551 208.668 403.424 208.736 402.079L208.873 397.226L210.787 397.362V410.829L209.078 411.034L209.01 408.437C208.714 409.485 208.178 410.282 207.403 410.829C206.629 411.353 205.729 411.615 204.703 411.615C203.86 411.615 203.131 411.422 202.516 411.034C201.9 410.67 201.388 410.157 200.978 409.496C200.59 408.835 200.294 408.038 200.089 407.104C199.907 406.169 199.815 405.144 199.815 404.027C199.815 403.002 199.884 401.885 200.021 400.678C200.18 399.447 200.396 398.114 200.67 396.679ZM223.023 397.978L222.545 400.028C222.363 399.937 222.112 399.846 221.793 399.755C221.497 399.641 221.155 399.538 220.768 399.447C220.403 399.356 220.004 399.288 219.571 399.242C219.161 399.174 218.774 399.14 218.409 399.14C217.726 399.14 217.133 399.242 216.632 399.447C216.153 399.652 215.914 400.017 215.914 400.541C215.914 400.928 216.119 401.259 216.529 401.532C216.939 401.806 217.418 402.045 217.965 402.25C218.535 402.432 219.093 402.58 219.64 402.694C220.209 402.808 220.654 402.899 220.973 402.968C221.656 403.173 222.203 403.446 222.613 403.788C223.046 404.107 223.377 404.46 223.604 404.848C223.855 405.212 224.026 405.6 224.117 406.01C224.208 406.42 224.254 406.819 224.254 407.206C224.254 408.026 224.06 408.721 223.673 409.291C223.308 409.838 222.83 410.294 222.237 410.658C221.668 411 221.018 411.251 220.289 411.41C219.583 411.57 218.876 411.649 218.17 411.649C217.076 411.649 216.028 411.501 215.025 411.205C214.046 410.909 213.271 410.51 212.701 410.009L213.521 407.685C213.795 407.912 214.114 408.129 214.479 408.334C214.866 408.516 215.287 408.687 215.743 408.847C216.199 408.983 216.677 409.097 217.179 409.188C217.68 409.257 218.17 409.291 218.648 409.291C219.469 409.291 220.198 409.132 220.836 408.812C221.474 408.493 221.861 407.935 221.998 407.138C221.998 407.001 221.975 406.83 221.93 406.625C221.907 406.397 221.827 406.181 221.69 405.976C221.576 405.771 221.383 405.577 221.109 405.395C220.859 405.212 220.494 405.087 220.016 405.019C219.081 404.882 218.215 404.7 217.418 404.472C216.643 404.244 215.971 403.959 215.401 403.617C214.832 403.275 214.376 402.865 214.034 402.387C213.715 401.885 213.556 401.304 213.556 400.644C213.556 399.368 213.977 398.445 214.82 397.875C215.663 397.305 216.905 397.021 218.546 397.021C219.412 397.021 220.243 397.112 221.041 397.294C221.861 397.476 222.522 397.704 223.023 397.978ZM225.895 403.993C225.895 402.74 226.077 401.692 226.441 400.849C226.806 399.983 227.262 399.299 227.809 398.798C228.378 398.274 229.005 397.909 229.688 397.704C230.372 397.476 231.033 397.362 231.671 397.362C232.582 397.362 233.403 397.499 234.132 397.772C234.861 398.023 235.476 398.456 235.978 399.071C236.502 399.664 236.9 400.461 237.174 401.464C237.447 402.466 237.584 403.697 237.584 405.155L228.082 406.078C228.15 406.716 228.321 407.263 228.595 407.719C228.891 408.152 229.256 408.505 229.688 408.778C230.121 409.052 230.589 409.245 231.09 409.359C231.591 409.473 232.104 409.53 232.628 409.53C233.494 409.53 234.326 409.405 235.123 409.154C235.921 408.904 236.513 408.596 236.9 408.231L237.516 409.872C237.356 410.1 237.117 410.328 236.798 410.556C236.479 410.784 236.103 410.977 235.67 411.137C235.237 411.319 234.747 411.456 234.2 411.547C233.676 411.661 233.129 411.718 232.56 411.718C231.762 411.718 230.965 411.592 230.167 411.342C229.369 411.091 228.652 410.67 228.014 410.077C227.376 409.485 226.863 408.699 226.476 407.719C226.088 406.716 225.895 405.474 225.895 403.993ZM227.877 404.062L235.396 403.241C235.396 402.125 235.1 401.236 234.508 400.575C233.915 399.892 232.958 399.55 231.637 399.55C230.999 399.573 230.44 399.709 229.962 399.96C229.506 400.211 229.119 400.53 228.8 400.917C228.481 401.282 228.242 401.703 228.082 402.182C227.923 402.66 227.843 403.15 227.843 403.651C227.843 403.834 227.854 403.97 227.877 404.062ZM241.412 411.786L240.25 396.747L242.369 396.474L242.848 403.104L250.162 398.183L251.119 400.097L243.189 405.839V411.581L241.412 411.786ZM270.396 401.669H252.76L252.896 399.823H270.533L270.396 401.669ZM286.324 401.396H278.565V410.419H276.549V401.293H272.379V398.866L276.378 398.935C276.355 398.661 276.344 398.399 276.344 398.148C276.344 397.898 276.344 397.647 276.344 397.396C276.344 396.303 276.378 395.38 276.446 394.628C276.537 393.876 276.651 393.238 276.788 392.714C276.925 392.19 277.073 391.768 277.232 391.449C277.415 391.107 277.597 390.823 277.779 390.595C278.281 389.957 278.85 389.501 279.488 389.228C280.126 388.931 280.776 388.783 281.437 388.783C282.12 388.783 282.792 388.92 283.453 389.193C284.114 389.467 284.706 389.854 285.23 390.355C285.777 390.834 286.233 391.404 286.598 392.064C286.962 392.725 287.19 393.443 287.281 394.218L285.572 395.38C285.458 394.696 285.253 394.092 284.957 393.568C284.684 393.021 284.353 392.566 283.966 392.201C283.601 391.837 283.202 391.563 282.77 391.381C282.337 391.176 281.904 391.073 281.471 391.073C281.038 391.073 280.639 391.164 280.274 391.347C279.91 391.529 279.602 391.905 279.352 392.475C279.101 393.021 278.896 393.819 278.736 394.867C278.6 395.893 278.531 397.271 278.531 399.003L286.324 399.14V401.396ZM290.699 411.786L289.537 396.747L291.656 396.474L292.135 403.104L299.449 398.183L300.406 400.097L292.477 405.839V411.581L290.699 411.786ZM302.799 411.103V398.593H305.191V411.239L302.799 411.103ZM305.943 395.79L303.551 396.474L301.363 391.278L303.756 390.663L305.943 395.79ZM308.131 403.993C308.131 402.74 308.313 401.692 308.678 400.849C309.042 399.983 309.498 399.299 310.045 398.798C310.615 398.274 311.241 397.909 311.925 397.704C312.608 397.476 313.269 397.362 313.907 397.362C314.819 397.362 315.639 397.499 316.368 397.772C317.097 398.023 317.713 398.456 318.214 399.071C318.738 399.664 319.137 400.461 319.41 401.464C319.684 402.466 319.82 403.697 319.82 405.155L310.318 406.078C310.387 406.716 310.558 407.263 310.831 407.719C311.127 408.152 311.492 408.505 311.925 408.778C312.358 409.052 312.825 409.245 313.326 409.359C313.827 409.473 314.34 409.53 314.864 409.53C315.73 409.53 316.562 409.405 317.359 409.154C318.157 408.904 318.749 408.596 319.137 408.231L319.752 409.872C319.592 410.1 319.353 410.328 319.034 410.556C318.715 410.784 318.339 410.977 317.906 411.137C317.473 411.319 316.983 411.456 316.437 411.547C315.912 411.661 315.366 411.718 314.796 411.718C313.998 411.718 313.201 411.592 312.403 411.342C311.606 411.091 310.888 410.67 310.25 410.077C309.612 409.485 309.099 408.699 308.712 407.719C308.325 406.716 308.131 405.474 308.131 403.993ZM310.113 404.062L317.633 403.241C317.633 402.125 317.337 401.236 316.744 400.575C316.152 399.892 315.195 399.55 313.873 399.55C313.235 399.573 312.677 399.709 312.198 399.96C311.743 400.211 311.355 400.53 311.036 400.917C310.717 401.282 310.478 401.703 310.318 402.182C310.159 402.66 310.079 403.15 310.079 403.651C310.079 403.834 310.09 403.97 310.113 404.062ZM331.305 399.892H324.674V410.829L322.965 411.034V396.337L324.605 395.995V397.704L332.535 397.226L333.561 399.276L334.586 410.419L332.398 411.034L331.305 399.892ZM348.395 387.724V409.735L347.506 410.829C346.754 411.057 346.048 411.216 345.387 411.308C344.726 411.399 344.099 411.444 343.507 411.444C342.117 411.444 340.943 411.228 339.986 410.795C339.052 410.362 338.289 409.792 337.696 409.086C337.104 408.38 336.671 407.593 336.397 406.728C336.147 405.862 336.021 404.984 336.021 404.096C336.021 402.842 336.215 401.783 336.603 400.917C336.99 400.028 337.491 399.299 338.106 398.729C338.744 398.16 339.451 397.75 340.226 397.499C341.023 397.226 341.832 397.089 342.652 397.089C343.997 397.089 345.204 397.385 346.275 397.978L346.207 387.655L348.395 387.724ZM346.139 400.985C345.615 400.507 345.045 400.154 344.43 399.926C343.814 399.675 343.188 399.55 342.55 399.55C342.003 399.55 341.467 399.652 340.943 399.857C340.442 400.04 339.998 400.325 339.61 400.712C339.223 401.076 338.904 401.544 338.653 402.113C338.425 402.66 338.312 403.31 338.312 404.062C338.312 404.927 338.46 405.668 338.756 406.283C339.052 406.898 339.439 407.4 339.918 407.787C340.419 408.174 340.989 408.471 341.627 408.676C342.288 408.858 342.971 408.949 343.678 408.949C344.589 408.949 345.41 408.778 346.139 408.437V400.985ZM351.334 409.188V388.544L353.59 388.407V408.3L355.846 408.847L355.641 411.308L351.881 410.556L351.334 409.188ZM363.297 408.915L357.35 398.593L359.195 397.157L364.22 406.215L367.535 396.405L369.449 397.431L362.75 417.118L360.904 415.956L363.297 408.915ZM148.033 454.282V443.926H144.547L144.752 441.431H148.512V434.458H150.836V441.567H156.441V444.028H150.597V452.915L155.758 451.958L156.1 454.282L149.264 455.718L148.033 454.282ZM163.824 443.003C162.571 443.003 161.58 443.39 160.851 444.165C160.144 444.94 159.791 446.182 159.791 447.891C159.791 448.551 159.882 449.212 160.064 449.873C160.247 450.511 160.509 451.092 160.851 451.616C161.192 452.14 161.603 452.573 162.081 452.915C162.56 453.234 163.095 453.394 163.688 453.394C164.303 453.394 164.861 453.245 165.362 452.949C165.864 452.653 166.285 452.277 166.627 451.821C166.969 451.343 167.231 450.819 167.413 450.249C167.618 449.657 167.721 449.087 167.721 448.54C167.721 446.535 167.356 445.111 166.627 444.268C165.921 443.424 164.986 443.003 163.824 443.003ZM163.619 440.679C164.758 440.679 165.727 440.884 166.524 441.294C167.322 441.704 167.971 442.274 168.473 443.003C168.974 443.709 169.339 444.541 169.566 445.498C169.794 446.432 169.908 447.446 169.908 448.54C169.863 449.771 169.658 450.841 169.293 451.753C168.951 452.642 168.495 453.382 167.926 453.975C167.356 454.567 166.707 455 165.978 455.273C165.271 455.57 164.531 455.718 163.756 455.718C162.73 455.718 161.83 455.513 161.056 455.103C160.304 454.692 159.666 454.146 159.142 453.462C158.64 452.756 158.253 451.958 157.979 451.069C157.729 450.158 157.604 449.201 157.604 448.198C157.604 447.127 157.74 446.136 158.014 445.225C158.31 444.29 158.709 443.493 159.21 442.832C159.734 442.148 160.361 441.624 161.09 441.26C161.842 440.872 162.685 440.679 163.619 440.679ZM177.359 443.003C176.106 443.003 175.115 443.39 174.386 444.165C173.679 444.94 173.326 446.182 173.326 447.891C173.326 448.551 173.417 449.212 173.6 449.873C173.782 450.511 174.044 451.092 174.386 451.616C174.728 452.14 175.138 452.573 175.616 452.915C176.095 453.234 176.63 453.394 177.223 453.394C177.838 453.394 178.396 453.245 178.897 452.949C179.399 452.653 179.82 452.277 180.162 451.821C180.504 451.343 180.766 450.819 180.948 450.249C181.153 449.657 181.256 449.087 181.256 448.54C181.256 446.535 180.891 445.111 180.162 444.268C179.456 443.424 178.521 443.003 177.359 443.003ZM177.154 440.679C178.294 440.679 179.262 440.884 180.06 441.294C180.857 441.704 181.507 442.274 182.008 443.003C182.509 443.709 182.874 444.541 183.102 445.498C183.329 446.432 183.443 447.446 183.443 448.54C183.398 449.771 183.193 450.841 182.828 451.753C182.486 452.642 182.031 453.382 181.461 453.975C180.891 454.567 180.242 455 179.513 455.273C178.806 455.57 178.066 455.718 177.291 455.718C176.266 455.718 175.366 455.513 174.591 455.103C173.839 454.692 173.201 454.146 172.677 453.462C172.175 452.756 171.788 451.958 171.515 451.069C171.264 450.158 171.139 449.201 171.139 448.198C171.139 447.127 171.275 446.136 171.549 445.225C171.845 444.29 172.244 443.493 172.745 442.832C173.269 442.148 173.896 441.624 174.625 441.26C175.377 440.872 176.22 440.679 177.154 440.679ZM185.494 453.188V432.544L187.75 432.407V452.3L190.006 452.847L189.801 455.308L186.041 454.556L185.494 453.188ZM201.832 441.978L201.354 444.028C201.171 443.937 200.921 443.846 200.602 443.755C200.305 443.641 199.964 443.538 199.576 443.447C199.212 443.356 198.813 443.288 198.38 443.242C197.97 443.174 197.582 443.14 197.218 443.14C196.534 443.14 195.942 443.242 195.44 443.447C194.962 443.652 194.723 444.017 194.723 444.541C194.723 444.928 194.928 445.259 195.338 445.532C195.748 445.806 196.227 446.045 196.773 446.25C197.343 446.432 197.901 446.58 198.448 446.694C199.018 446.808 199.462 446.899 199.781 446.968C200.465 447.173 201.012 447.446 201.422 447.788C201.855 448.107 202.185 448.46 202.413 448.848C202.664 449.212 202.835 449.6 202.926 450.01C203.017 450.42 203.062 450.819 203.062 451.206C203.062 452.026 202.869 452.721 202.481 453.291C202.117 453.838 201.638 454.294 201.046 454.658C200.476 455 199.827 455.251 199.098 455.41C198.391 455.57 197.685 455.649 196.979 455.649C195.885 455.649 194.837 455.501 193.834 455.205C192.854 454.909 192.079 454.51 191.51 454.009L192.33 451.685C192.604 451.912 192.923 452.129 193.287 452.334C193.674 452.516 194.096 452.687 194.552 452.847C195.007 452.983 195.486 453.097 195.987 453.188C196.489 453.257 196.979 453.291 197.457 453.291C198.277 453.291 199.007 453.132 199.645 452.812C200.283 452.493 200.67 451.935 200.807 451.138C200.807 451.001 200.784 450.83 200.738 450.625C200.715 450.397 200.636 450.181 200.499 449.976C200.385 449.771 200.191 449.577 199.918 449.395C199.667 449.212 199.303 449.087 198.824 449.019C197.89 448.882 197.024 448.7 196.227 448.472C195.452 448.244 194.78 447.959 194.21 447.617C193.64 447.275 193.185 446.865 192.843 446.387C192.524 445.885 192.364 445.304 192.364 444.644C192.364 443.368 192.786 442.445 193.629 441.875C194.472 441.305 195.714 441.021 197.354 441.021C198.22 441.021 199.052 441.112 199.85 441.294C200.67 441.476 201.331 441.704 201.832 441.978ZM227.193 445.396H219.435V454.419H217.418V445.293H213.248V442.866L217.247 442.935C217.224 442.661 217.213 442.399 217.213 442.148C217.213 441.898 217.213 441.647 217.213 441.396C217.213 440.303 217.247 439.38 217.315 438.628C217.407 437.876 217.521 437.238 217.657 436.714C217.794 436.19 217.942 435.768 218.102 435.449C218.284 435.107 218.466 434.823 218.648 434.595C219.15 433.957 219.719 433.501 220.357 433.228C220.995 432.931 221.645 432.783 222.306 432.783C222.989 432.783 223.661 432.92 224.322 433.193C224.983 433.467 225.576 433.854 226.1 434.355C226.646 434.834 227.102 435.404 227.467 436.064C227.831 436.725 228.059 437.443 228.15 438.218L226.441 439.38C226.327 438.696 226.122 438.092 225.826 437.568C225.553 437.021 225.222 436.566 224.835 436.201C224.47 435.837 224.072 435.563 223.639 435.381C223.206 435.176 222.773 435.073 222.34 435.073C221.907 435.073 221.508 435.164 221.144 435.347C220.779 435.529 220.471 435.905 220.221 436.475C219.97 437.021 219.765 437.819 219.605 438.867C219.469 439.893 219.4 441.271 219.4 443.003L227.193 443.14V445.396ZM235.602 443.003C234.348 443.003 233.357 443.39 232.628 444.165C231.922 444.94 231.568 446.182 231.568 447.891C231.568 448.551 231.66 449.212 231.842 449.873C232.024 450.511 232.286 451.092 232.628 451.616C232.97 452.14 233.38 452.573 233.858 452.915C234.337 453.234 234.872 453.394 235.465 453.394C236.08 453.394 236.638 453.245 237.14 452.949C237.641 452.653 238.062 452.277 238.404 451.821C238.746 451.343 239.008 450.819 239.19 450.249C239.396 449.657 239.498 449.087 239.498 448.54C239.498 446.535 239.133 445.111 238.404 444.268C237.698 443.424 236.764 443.003 235.602 443.003ZM235.396 440.679C236.536 440.679 237.504 440.884 238.302 441.294C239.099 441.704 239.749 442.274 240.25 443.003C240.751 443.709 241.116 444.541 241.344 445.498C241.572 446.432 241.686 447.446 241.686 448.54C241.64 449.771 241.435 450.841 241.07 451.753C240.729 452.642 240.273 453.382 239.703 453.975C239.133 454.567 238.484 455 237.755 455.273C237.049 455.57 236.308 455.718 235.533 455.718C234.508 455.718 233.608 455.513 232.833 455.103C232.081 454.692 231.443 454.146 230.919 453.462C230.418 452.756 230.03 451.958 229.757 451.069C229.506 450.158 229.381 449.201 229.381 448.198C229.381 447.127 229.518 446.136 229.791 445.225C230.087 444.29 230.486 443.493 230.987 442.832C231.511 442.148 232.138 441.624 232.867 441.26C233.619 440.872 234.462 440.679 235.396 440.679ZM245.104 455.786L243.941 440.747L246.061 440.474L246.539 447.104L253.854 442.183L254.811 444.097L246.881 449.839V455.581L245.104 455.786ZM274.84 441.978L274.361 444.028C274.179 443.937 273.928 443.846 273.609 443.755C273.313 443.641 272.971 443.538 272.584 443.447C272.219 443.356 271.821 443.288 271.388 443.242C270.978 443.174 270.59 443.14 270.226 443.14C269.542 443.14 268.95 443.242 268.448 443.447C267.97 443.652 267.73 444.017 267.73 444.541C267.73 444.928 267.936 445.259 268.346 445.532C268.756 445.806 269.234 446.045 269.781 446.25C270.351 446.432 270.909 446.58 271.456 446.694C272.026 446.808 272.47 446.899 272.789 446.968C273.473 447.173 274.02 447.446 274.43 447.788C274.863 448.107 275.193 448.46 275.421 448.848C275.672 449.212 275.842 449.6 275.934 450.01C276.025 450.42 276.07 450.819 276.07 451.206C276.07 452.026 275.877 452.721 275.489 453.291C275.125 453.838 274.646 454.294 274.054 454.658C273.484 455 272.835 455.251 272.105 455.41C271.399 455.57 270.693 455.649 269.986 455.649C268.893 455.649 267.844 455.501 266.842 455.205C265.862 454.909 265.087 454.51 264.518 454.009L265.338 451.685C265.611 451.912 265.93 452.129 266.295 452.334C266.682 452.516 267.104 452.687 267.56 452.847C268.015 452.983 268.494 453.097 268.995 453.188C269.496 453.257 269.986 453.291 270.465 453.291C271.285 453.291 272.014 453.132 272.652 452.812C273.29 452.493 273.678 451.935 273.814 451.138C273.814 451.001 273.792 450.83 273.746 450.625C273.723 450.397 273.644 450.181 273.507 449.976C273.393 449.771 273.199 449.577 272.926 449.395C272.675 449.212 272.311 449.087 271.832 449.019C270.898 448.882 270.032 448.7 269.234 448.472C268.46 448.244 267.787 447.959 267.218 447.617C266.648 447.275 266.192 446.865 265.851 446.387C265.532 445.885 265.372 445.304 265.372 444.644C265.372 443.368 265.794 442.445 266.637 441.875C267.48 441.305 268.722 441.021 270.362 441.021C271.228 441.021 272.06 441.112 272.857 441.294C273.678 441.476 274.339 441.704 274.84 441.978ZM277.711 440.679L279.83 440.2L280.001 441.704H292.545L294.117 443.481V454.146L292.682 454.351V445.327L291.314 443.481H287.828V454.624H285.846V443.755H280.24L281.402 454.966L279.215 455.239L277.711 440.679ZM309.293 444.917L311.48 454.214L309.43 454.966L308.199 449.155C308.04 449.793 307.789 450.454 307.447 451.138C307.128 451.821 306.718 452.448 306.217 453.018C305.738 453.564 305.157 454.02 304.474 454.385C303.813 454.727 303.061 454.897 302.218 454.897C300.714 454.897 299.563 454.419 298.766 453.462C297.991 452.482 297.604 451.138 297.604 449.429C297.604 448.449 297.752 447.435 298.048 446.387C298.344 445.316 298.788 444.347 299.381 443.481C299.973 442.616 300.714 441.898 301.603 441.328C302.514 440.758 303.574 440.474 304.781 440.474C305.488 440.474 306.103 440.633 306.627 440.952C307.174 441.248 307.63 441.624 307.994 442.08C308.359 442.536 308.644 443.026 308.849 443.55C309.054 444.051 309.202 444.507 309.293 444.917ZM305.123 442.935C304.964 442.889 304.804 442.855 304.645 442.832C304.508 442.809 304.36 442.798 304.2 442.798C303.494 442.798 302.856 443.014 302.286 443.447C301.739 443.857 301.272 444.382 300.885 445.02C300.52 445.658 300.235 446.353 300.03 447.104C299.848 447.856 299.757 448.551 299.757 449.189C299.757 450.192 299.973 451.001 300.406 451.616C300.839 452.231 301.523 452.539 302.457 452.539C303.095 452.539 303.688 452.334 304.234 451.924C304.781 451.491 305.248 450.955 305.636 450.317C306.023 449.679 306.319 448.984 306.524 448.232C306.752 447.458 306.866 446.74 306.866 446.079C306.866 445.35 306.718 444.712 306.422 444.165C306.148 443.595 305.715 443.185 305.123 442.935ZM315.719 455.786L314.557 440.747L316.676 440.474L317.154 447.104L324.469 442.183L325.426 444.097L317.496 449.839V455.581L315.719 455.786ZM329.732 454.282V443.926H326.246L326.451 441.431H330.211V434.458H332.535V441.567H338.141V444.028H332.296V452.915L337.457 451.958L337.799 454.282L330.963 455.718L329.732 454.282ZM339.781 447.993C339.781 446.74 339.964 445.692 340.328 444.849C340.693 443.983 341.148 443.299 341.695 442.798C342.265 442.274 342.892 441.909 343.575 441.704C344.259 441.476 344.92 441.362 345.558 441.362C346.469 441.362 347.289 441.499 348.019 441.772C348.748 442.023 349.363 442.456 349.864 443.071C350.388 443.664 350.787 444.461 351.061 445.464C351.334 446.466 351.471 447.697 351.471 449.155L341.969 450.078C342.037 450.716 342.208 451.263 342.481 451.719C342.778 452.152 343.142 452.505 343.575 452.778C344.008 453.052 344.475 453.245 344.977 453.359C345.478 453.473 345.991 453.53 346.515 453.53C347.381 453.53 348.212 453.405 349.01 453.154C349.807 452.904 350.4 452.596 350.787 452.231L351.402 453.872C351.243 454.1 351.004 454.328 350.685 454.556C350.366 454.784 349.99 454.977 349.557 455.137C349.124 455.319 348.634 455.456 348.087 455.547C347.563 455.661 347.016 455.718 346.446 455.718C345.649 455.718 344.851 455.592 344.054 455.342C343.256 455.091 342.538 454.67 341.9 454.077C341.262 453.485 340.75 452.699 340.362 451.719C339.975 450.716 339.781 449.474 339.781 447.993ZM341.764 448.062L349.283 447.241C349.283 446.125 348.987 445.236 348.395 444.575C347.802 443.892 346.845 443.55 345.523 443.55C344.885 443.573 344.327 443.709 343.849 443.96C343.393 444.211 343.006 444.53 342.687 444.917C342.368 445.282 342.128 445.703 341.969 446.182C341.809 446.66 341.729 447.15 341.729 447.651C341.729 447.834 341.741 447.97 341.764 448.062ZM355.299 455.786L354.137 440.747L356.256 440.474L356.734 447.104L364.049 442.183L365.006 444.097L357.076 449.839V455.581L355.299 455.786ZM158.834 489.396H151.075V498.419H149.059V489.293H144.889V486.866L148.888 486.935C148.865 486.661 148.854 486.399 148.854 486.148C148.854 485.898 148.854 485.647 148.854 485.396C148.854 484.303 148.888 483.38 148.956 482.628C149.047 481.876 149.161 481.238 149.298 480.714C149.435 480.19 149.583 479.768 149.742 479.449C149.924 479.107 150.107 478.823 150.289 478.595C150.79 477.957 151.36 477.501 151.998 477.228C152.636 476.931 153.285 476.783 153.946 476.783C154.63 476.783 155.302 476.92 155.963 477.193C156.624 477.467 157.216 477.854 157.74 478.355C158.287 478.834 158.743 479.404 159.107 480.064C159.472 480.725 159.7 481.443 159.791 482.218L158.082 483.38C157.968 482.696 157.763 482.092 157.467 481.568C157.193 481.021 156.863 480.566 156.476 480.201C156.111 479.837 155.712 479.563 155.279 479.381C154.846 479.176 154.413 479.073 153.98 479.073C153.548 479.073 153.149 479.164 152.784 479.347C152.42 479.529 152.112 479.905 151.861 480.475C151.611 481.021 151.406 481.819 151.246 482.867C151.109 483.893 151.041 485.271 151.041 487.003L158.834 487.14V489.396ZM162.389 499.103V486.593H164.781V499.239L162.389 499.103ZM165.533 483.79L163.141 484.474L160.953 479.278L163.346 478.663L165.533 483.79ZM177.086 487.892H170.455V498.829L168.746 499.034V484.337L170.387 483.995V485.704L178.316 485.226L179.342 487.276L180.367 498.419L178.18 499.034L177.086 487.892ZM194.518 488.917L196.705 498.214L194.654 498.966L193.424 493.155C193.264 493.793 193.014 494.454 192.672 495.138C192.353 495.821 191.943 496.448 191.441 497.018C190.963 497.564 190.382 498.02 189.698 498.385C189.037 498.727 188.285 498.897 187.442 498.897C185.938 498.897 184.788 498.419 183.99 497.462C183.215 496.482 182.828 495.138 182.828 493.429C182.828 492.449 182.976 491.435 183.272 490.387C183.569 489.316 184.013 488.347 184.605 487.481C185.198 486.616 185.938 485.898 186.827 485.328C187.739 484.758 188.798 484.474 190.006 484.474C190.712 484.474 191.327 484.633 191.852 484.952C192.398 485.248 192.854 485.624 193.219 486.08C193.583 486.536 193.868 487.026 194.073 487.55C194.278 488.051 194.426 488.507 194.518 488.917ZM190.348 486.935C190.188 486.889 190.029 486.855 189.869 486.832C189.732 486.809 189.584 486.798 189.425 486.798C188.718 486.798 188.08 487.014 187.511 487.447C186.964 487.857 186.497 488.382 186.109 489.02C185.745 489.658 185.46 490.353 185.255 491.104C185.073 491.856 184.981 492.551 184.981 493.189C184.981 494.192 185.198 495.001 185.631 495.616C186.064 496.231 186.747 496.539 187.682 496.539C188.32 496.539 188.912 496.334 189.459 495.924C190.006 495.491 190.473 494.955 190.86 494.317C191.248 493.679 191.544 492.984 191.749 492.232C191.977 491.458 192.091 490.74 192.091 490.079C192.091 489.35 191.943 488.712 191.646 488.165C191.373 487.595 190.94 487.185 190.348 486.935ZM208.6 487.892H201.969V498.829L200.26 499.034V484.337L201.9 483.995V485.704L209.83 485.226L210.855 487.276L211.881 498.419L209.693 499.034L208.6 487.892ZM225.348 486.524L224.732 488.712C224.072 488.119 223.365 487.687 222.613 487.413C221.861 487.117 221.121 486.969 220.392 486.969C219.776 486.969 219.184 487.083 218.614 487.311C218.067 487.516 217.589 487.835 217.179 488.268C216.769 488.701 216.438 489.236 216.188 489.874C215.96 490.512 215.846 491.241 215.846 492.062C215.846 493.041 215.971 493.862 216.222 494.522C216.495 495.183 216.848 495.719 217.281 496.129C217.714 496.539 218.204 496.835 218.751 497.018C219.321 497.2 219.902 497.291 220.494 497.291C221.018 497.268 221.531 497.166 222.032 496.983C222.556 496.778 223.023 496.505 223.434 496.163C223.844 495.799 224.186 495.377 224.459 494.898C224.732 494.397 224.892 493.839 224.938 493.224L226.852 494.181C226.806 495.092 226.59 495.89 226.202 496.573C225.838 497.257 225.359 497.826 224.767 498.282C224.197 498.738 223.536 499.08 222.784 499.308C222.032 499.535 221.257 499.649 220.46 499.649C219.617 499.649 218.785 499.49 217.965 499.171C217.145 498.875 216.415 498.419 215.777 497.804C215.139 497.188 214.627 496.414 214.239 495.479C213.852 494.522 213.658 493.406 213.658 492.13C213.658 491.059 213.818 490.079 214.137 489.19C214.456 488.279 214.9 487.504 215.47 486.866C216.039 486.205 216.712 485.693 217.486 485.328C218.284 484.964 219.15 484.781 220.084 484.781C220.882 484.781 221.713 484.929 222.579 485.226C223.468 485.499 224.391 485.932 225.348 486.524ZM229.654 499.103V486.593H232.047V499.239L229.654 499.103ZM232.799 483.79L230.406 484.474L228.219 479.278L230.611 478.663L232.799 483.79ZM247.291 488.917L249.479 498.214L247.428 498.966L246.197 493.155C246.038 493.793 245.787 494.454 245.445 495.138C245.126 495.821 244.716 496.448 244.215 497.018C243.736 497.564 243.155 498.02 242.472 498.385C241.811 498.727 241.059 498.897 240.216 498.897C238.712 498.897 237.561 498.419 236.764 497.462C235.989 496.482 235.602 495.138 235.602 493.429C235.602 492.449 235.75 491.435 236.046 490.387C236.342 489.316 236.786 488.347 237.379 487.481C237.971 486.616 238.712 485.898 239.601 485.328C240.512 484.758 241.572 484.474 242.779 484.474C243.486 484.474 244.101 484.633 244.625 484.952C245.172 485.248 245.628 485.624 245.992 486.08C246.357 486.536 246.642 487.026 246.847 487.55C247.052 488.051 247.2 488.507 247.291 488.917ZM243.121 486.935C242.962 486.889 242.802 486.855 242.643 486.832C242.506 486.809 242.358 486.798 242.198 486.798C241.492 486.798 240.854 487.014 240.284 487.447C239.737 487.857 239.27 488.382 238.883 489.02C238.518 489.658 238.233 490.353 238.028 491.104C237.846 491.856 237.755 492.551 237.755 493.189C237.755 494.192 237.971 495.001 238.404 495.616C238.837 496.231 239.521 496.539 240.455 496.539C241.093 496.539 241.686 496.334 242.232 495.924C242.779 495.491 243.246 494.955 243.634 494.317C244.021 493.679 244.317 492.984 244.522 492.232C244.75 491.458 244.864 490.74 244.864 490.079C244.864 489.35 244.716 488.712 244.42 488.165C244.146 487.595 243.714 487.185 243.121 486.935ZM252.35 497.188V476.544L254.605 476.407V496.3L256.861 496.847L256.656 499.308L252.896 498.556L252.35 497.188ZM279.898 475.724V497.735L279.01 498.829C278.258 499.057 277.551 499.216 276.891 499.308C276.23 499.399 275.603 499.444 275.011 499.444C273.621 499.444 272.447 499.228 271.49 498.795C270.556 498.362 269.793 497.792 269.2 497.086C268.608 496.38 268.175 495.593 267.901 494.728C267.651 493.862 267.525 492.984 267.525 492.096C267.525 490.842 267.719 489.783 268.106 488.917C268.494 488.028 268.995 487.299 269.61 486.729C270.248 486.16 270.955 485.75 271.729 485.499C272.527 485.226 273.336 485.089 274.156 485.089C275.501 485.089 276.708 485.385 277.779 485.978L277.711 475.655L279.898 475.724ZM277.643 488.985C277.118 488.507 276.549 488.154 275.934 487.926C275.318 487.675 274.692 487.55 274.054 487.55C273.507 487.55 272.971 487.652 272.447 487.857C271.946 488.04 271.502 488.325 271.114 488.712C270.727 489.076 270.408 489.544 270.157 490.113C269.929 490.66 269.815 491.31 269.815 492.062C269.815 492.927 269.964 493.668 270.26 494.283C270.556 494.898 270.943 495.4 271.422 495.787C271.923 496.174 272.493 496.471 273.131 496.676C273.792 496.858 274.475 496.949 275.182 496.949C276.093 496.949 276.913 496.778 277.643 496.437V488.985ZM282.496 491.993C282.496 490.74 282.678 489.692 283.043 488.849C283.408 487.983 283.863 487.299 284.41 486.798C284.98 486.274 285.606 485.909 286.29 485.704C286.974 485.476 287.634 485.362 288.272 485.362C289.184 485.362 290.004 485.499 290.733 485.772C291.463 486.023 292.078 486.456 292.579 487.071C293.103 487.664 293.502 488.461 293.775 489.464C294.049 490.466 294.186 491.697 294.186 493.155L284.684 494.078C284.752 494.716 284.923 495.263 285.196 495.719C285.493 496.152 285.857 496.505 286.29 496.778C286.723 497.052 287.19 497.245 287.691 497.359C288.193 497.473 288.705 497.53 289.229 497.53C290.095 497.53 290.927 497.405 291.725 497.154C292.522 496.904 293.115 496.596 293.502 496.231L294.117 497.872C293.958 498.1 293.718 498.328 293.399 498.556C293.08 498.784 292.704 498.977 292.271 499.137C291.839 499.319 291.349 499.456 290.802 499.547C290.278 499.661 289.731 499.718 289.161 499.718C288.364 499.718 287.566 499.592 286.769 499.342C285.971 499.091 285.253 498.67 284.615 498.077C283.977 497.485 283.465 496.699 283.077 495.719C282.69 494.716 282.496 493.474 282.496 491.993ZM284.479 492.062L291.998 491.241C291.998 490.125 291.702 489.236 291.109 488.575C290.517 487.892 289.56 487.55 288.238 487.55C287.6 487.573 287.042 487.709 286.563 487.96C286.108 488.211 285.72 488.53 285.401 488.917C285.082 489.282 284.843 489.703 284.684 490.182C284.524 490.66 284.444 491.15 284.444 491.651C284.444 491.834 284.456 491.97 284.479 492.062ZM307.926 486.524L307.311 488.712C306.65 488.119 305.943 487.687 305.191 487.413C304.439 487.117 303.699 486.969 302.97 486.969C302.354 486.969 301.762 487.083 301.192 487.311C300.646 487.516 300.167 487.835 299.757 488.268C299.347 488.701 299.016 489.236 298.766 489.874C298.538 490.512 298.424 491.241 298.424 492.062C298.424 493.041 298.549 493.862 298.8 494.522C299.073 495.183 299.426 495.719 299.859 496.129C300.292 496.539 300.782 496.835 301.329 497.018C301.899 497.2 302.48 497.291 303.072 497.291C303.596 497.268 304.109 497.166 304.61 496.983C305.134 496.778 305.602 496.505 306.012 496.163C306.422 495.799 306.764 495.377 307.037 494.898C307.311 494.397 307.47 493.839 307.516 493.224L309.43 494.181C309.384 495.092 309.168 495.89 308.78 496.573C308.416 497.257 307.937 497.826 307.345 498.282C306.775 498.738 306.114 499.08 305.362 499.308C304.61 499.535 303.836 499.649 303.038 499.649C302.195 499.649 301.363 499.49 300.543 499.171C299.723 498.875 298.993 498.419 298.355 497.804C297.717 497.188 297.205 496.414 296.817 495.479C296.43 494.522 296.236 493.406 296.236 492.13C296.236 491.059 296.396 490.079 296.715 489.19C297.034 488.279 297.478 487.504 298.048 486.866C298.618 486.205 299.29 485.693 300.064 485.328C300.862 484.964 301.728 484.781 302.662 484.781C303.46 484.781 304.291 484.929 305.157 485.226C306.046 485.499 306.969 485.932 307.926 486.524ZM312.232 499.103V486.593H314.625V499.239L312.232 499.103ZM315.377 483.79L312.984 484.474L310.797 479.278L313.189 478.663L315.377 483.79ZM327.203 485.978L326.725 488.028C326.542 487.937 326.292 487.846 325.973 487.755C325.676 487.641 325.335 487.538 324.947 487.447C324.583 487.356 324.184 487.288 323.751 487.242C323.341 487.174 322.953 487.14 322.589 487.14C321.905 487.14 321.313 487.242 320.812 487.447C320.333 487.652 320.094 488.017 320.094 488.541C320.094 488.928 320.299 489.259 320.709 489.532C321.119 489.806 321.598 490.045 322.145 490.25C322.714 490.432 323.272 490.58 323.819 490.694C324.389 490.808 324.833 490.899 325.152 490.968C325.836 491.173 326.383 491.446 326.793 491.788C327.226 492.107 327.556 492.46 327.784 492.848C328.035 493.212 328.206 493.6 328.297 494.01C328.388 494.42 328.434 494.819 328.434 495.206C328.434 496.026 328.24 496.721 327.853 497.291C327.488 497.838 327.009 498.294 326.417 498.658C325.847 499 325.198 499.251 324.469 499.41C323.762 499.57 323.056 499.649 322.35 499.649C321.256 499.649 320.208 499.501 319.205 499.205C318.225 498.909 317.451 498.51 316.881 498.009L317.701 495.685C317.975 495.912 318.294 496.129 318.658 496.334C319.046 496.516 319.467 496.687 319.923 496.847C320.379 496.983 320.857 497.097 321.358 497.188C321.86 497.257 322.35 497.291 322.828 497.291C323.648 497.291 324.378 497.132 325.016 496.812C325.654 496.493 326.041 495.935 326.178 495.138C326.178 495.001 326.155 494.83 326.109 494.625C326.087 494.397 326.007 494.181 325.87 493.976C325.756 493.771 325.562 493.577 325.289 493.395C325.038 493.212 324.674 493.087 324.195 493.019C323.261 492.882 322.395 492.7 321.598 492.472C320.823 492.244 320.151 491.959 319.581 491.617C319.011 491.275 318.556 490.865 318.214 490.387C317.895 489.885 317.735 489.304 317.735 488.644C317.735 487.368 318.157 486.445 319 485.875C319.843 485.305 321.085 485.021 322.726 485.021C323.591 485.021 324.423 485.112 325.221 485.294C326.041 485.476 326.702 485.704 327.203 485.978ZM330.963 499.103V486.593H333.355V499.239L330.963 499.103ZM334.107 483.79L331.715 484.474L329.527 479.278L331.92 478.663L334.107 483.79ZM342.037 487.003C340.784 487.003 339.793 487.39 339.063 488.165C338.357 488.94 338.004 490.182 338.004 491.891C338.004 492.551 338.095 493.212 338.277 493.873C338.46 494.511 338.722 495.092 339.063 495.616C339.405 496.14 339.815 496.573 340.294 496.915C340.772 497.234 341.308 497.394 341.9 497.394C342.516 497.394 343.074 497.245 343.575 496.949C344.076 496.653 344.498 496.277 344.84 495.821C345.182 495.343 345.444 494.819 345.626 494.249C345.831 493.657 345.934 493.087 345.934 492.54C345.934 490.535 345.569 489.111 344.84 488.268C344.133 487.424 343.199 487.003 342.037 487.003ZM341.832 484.679C342.971 484.679 343.94 484.884 344.737 485.294C345.535 485.704 346.184 486.274 346.686 487.003C347.187 487.709 347.551 488.541 347.779 489.498C348.007 490.432 348.121 491.446 348.121 492.54C348.076 493.771 347.87 494.841 347.506 495.753C347.164 496.642 346.708 497.382 346.139 497.975C345.569 498.567 344.92 499 344.19 499.273C343.484 499.57 342.743 499.718 341.969 499.718C340.943 499.718 340.043 499.513 339.269 499.103C338.517 498.692 337.879 498.146 337.354 497.462C336.853 496.756 336.466 495.958 336.192 495.069C335.942 494.158 335.816 493.201 335.816 492.198C335.816 491.127 335.953 490.136 336.227 489.225C336.523 488.29 336.922 487.493 337.423 486.832C337.947 486.148 338.574 485.624 339.303 485.26C340.055 484.872 340.898 484.679 341.832 484.679ZM359.195 487.892H352.564V498.829L350.855 499.034V484.337L352.496 483.995V485.704L360.426 485.226L361.451 487.276L362.477 498.419L360.289 499.034L359.195 487.892ZM373.961 485.978L373.482 488.028C373.3 487.937 373.049 487.846 372.73 487.755C372.434 487.641 372.092 487.538 371.705 487.447C371.34 487.356 370.942 487.288 370.509 487.242C370.099 487.174 369.711 487.14 369.347 487.14C368.663 487.14 368.071 487.242 367.569 487.447C367.091 487.652 366.852 488.017 366.852 488.541C366.852 488.928 367.057 489.259 367.467 489.532C367.877 489.806 368.355 490.045 368.902 490.25C369.472 490.432 370.03 490.58 370.577 490.694C371.147 490.808 371.591 490.899 371.91 490.968C372.594 491.173 373.141 491.446 373.551 491.788C373.984 492.107 374.314 492.46 374.542 492.848C374.793 493.212 374.964 493.6 375.055 494.01C375.146 494.42 375.191 494.819 375.191 495.206C375.191 496.026 374.998 496.721 374.61 497.291C374.246 497.838 373.767 498.294 373.175 498.658C372.605 499 371.956 499.251 371.227 499.41C370.52 499.57 369.814 499.649 369.107 499.649C368.014 499.649 366.965 499.501 365.963 499.205C364.983 498.909 364.208 498.51 363.639 498.009L364.459 495.685C364.732 495.912 365.051 496.129 365.416 496.334C365.803 496.516 366.225 496.687 366.681 496.847C367.136 496.983 367.615 497.097 368.116 497.188C368.618 497.257 369.107 497.291 369.586 497.291C370.406 497.291 371.135 497.132 371.773 496.812C372.411 496.493 372.799 495.935 372.936 495.138C372.936 495.001 372.913 494.83 372.867 494.625C372.844 494.397 372.765 494.181 372.628 493.976C372.514 493.771 372.32 493.577 372.047 493.395C371.796 493.212 371.432 493.087 370.953 493.019C370.019 492.882 369.153 492.7 368.355 492.472C367.581 492.244 366.909 491.959 366.339 491.617C365.769 491.275 365.313 490.865 364.972 490.387C364.653 489.885 364.493 489.304 364.493 488.644C364.493 487.368 364.915 486.445 365.758 485.875C366.601 485.305 367.843 485.021 369.483 485.021C370.349 485.021 371.181 485.112 371.979 485.294C372.799 485.476 373.46 485.704 373.961 485.978ZM381.275 495.685L379.43 498.214L376.559 495.274L378.473 492.95L381.275 495.685Z" fill="black"/>
<path d="M198.06 206.55H190.56L189.42 210H183.24L190.95 188.85H197.73L205.41 210H199.2L198.06 206.55ZM196.59 202.05L194.31 195.21L192.06 202.05H196.59ZM220.826 199.14C222.066 199.42 223.046 200.04 223.766 201C224.506 201.94 224.876 203.02 224.876 204.24C224.876 206.04 224.256 207.45 223.016 208.47C221.776 209.49 220.036 210 217.796 210H207.326V188.85H217.466C219.626 188.85 221.316 189.33 222.536 190.29C223.776 191.25 224.396 192.6 224.396 194.34C224.396 195.58 224.066 196.62 223.406 197.46C222.766 198.28 221.906 198.84 220.826 199.14ZM213.206 197.25H216.176C217.656 197.25 218.396 196.64 218.396 195.42C218.396 194.16 217.656 193.53 216.176 193.53H213.206V197.25ZM216.626 205.26C218.106 205.26 218.846 204.64 218.846 203.4C218.846 202.76 218.646 202.27 218.246 201.93C217.866 201.59 217.316 201.42 216.596 201.42H213.206V205.26H216.626ZM237.593 210.21C235.613 210.21 233.793 209.75 232.133 208.83C230.473 207.89 229.153 206.6 228.173 204.96C227.213 203.3 226.733 201.43 226.733 199.35C226.733 197.27 227.213 195.41 228.173 193.77C229.153 192.11 230.473 190.82 232.133 189.9C233.793 188.98 235.613 188.52 237.593 188.52C239.593 188.52 241.413 188.98 243.053 189.9C244.713 190.82 246.023 192.11 246.983 193.77C247.943 195.41 248.423 197.27 248.423 199.35C248.423 201.43 247.943 203.3 246.983 204.96C246.023 206.6 244.713 207.89 243.053 208.83C241.393 209.75 239.573 210.21 237.593 210.21ZM237.593 204.75C239.093 204.75 240.273 204.26 241.133 203.28C242.013 202.3 242.453 200.99 242.453 199.35C242.453 197.67 242.013 196.35 241.133 195.39C240.273 194.41 239.093 193.92 237.593 193.92C236.073 193.92 234.883 194.41 234.023 195.39C233.163 196.35 232.733 197.67 232.733 199.35C232.733 201.01 233.163 202.33 234.023 203.31C234.883 204.27 236.073 204.75 237.593 204.75ZM256.827 188.85V201.12C256.827 202.26 257.087 203.14 257.607 203.76C258.147 204.38 258.957 204.69 260.037 204.69C261.117 204.69 261.927 204.38 262.467 203.76C263.027 203.12 263.307 202.24 263.307 201.12V188.85H269.187V201.12C269.187 203.06 268.777 204.72 267.957 206.1C267.137 207.46 266.017 208.49 264.597 209.19C263.197 209.87 261.637 210.21 259.917 210.21C258.197 210.21 256.657 209.87 255.297 209.19C253.957 208.49 252.897 207.46 252.117 206.1C251.357 204.74 250.977 203.08 250.977 201.12V188.85H256.827ZM288.354 188.85V193.53H282.714V210H276.834V193.53H271.254V188.85H288.354ZM302.032 188.85V201.12C302.032 202.26 302.292 203.14 302.812 203.76C303.352 204.38 304.162 204.69 305.242 204.69C306.322 204.69 307.132 204.38 307.672 203.76C308.232 203.12 308.512 202.24 308.512 201.12V188.85H314.392V201.12C314.392 203.06 313.982 204.72 313.162 206.1C312.342 207.46 311.222 208.49 309.802 209.19C308.402 209.87 306.842 210.21 305.122 210.21C303.402 210.21 301.862 209.87 300.502 209.19C299.162 208.49 298.102 207.46 297.322 206.1C296.562 204.74 296.182 203.08 296.182 201.12V188.85H302.032ZM325.609 210.21C323.149 210.21 321.129 209.63 319.549 208.47C317.969 207.29 317.119 205.61 316.999 203.43H323.269C323.329 204.17 323.549 204.71 323.929 205.05C324.309 205.39 324.799 205.56 325.399 205.56C325.939 205.56 326.379 205.43 326.719 205.17C327.079 204.89 327.259 204.51 327.259 204.03C327.259 203.41 326.969 202.93 326.389 202.59C325.809 202.25 324.869 201.87 323.569 201.45C322.189 200.99 321.069 200.55 320.209 200.13C319.369 199.69 318.629 199.06 317.989 198.24C317.369 197.4 317.059 196.31 317.059 194.97C317.059 193.61 317.399 192.45 318.079 191.49C318.759 190.51 319.699 189.77 320.899 189.27C322.099 188.77 323.459 188.52 324.979 188.52C327.439 188.52 329.399 189.1 330.859 190.26C332.339 191.4 333.129 193.01 333.229 195.09H326.839C326.819 194.45 326.619 193.97 326.239 193.65C325.879 193.33 325.409 193.17 324.829 193.17C324.389 193.17 324.029 193.3 323.749 193.56C323.469 193.82 323.329 194.19 323.329 194.67C323.329 195.07 323.479 195.42 323.779 195.72C324.099 196 324.489 196.25 324.949 196.47C325.409 196.67 326.089 196.93 326.989 197.25C328.329 197.71 329.429 198.17 330.289 198.63C331.169 199.07 331.919 199.7 332.539 200.52C333.179 201.32 333.499 202.34 333.499 203.58C333.499 204.84 333.179 205.97 332.539 206.97C331.919 207.97 331.009 208.76 329.809 209.34C328.629 209.92 327.229 210.21 325.609 210.21Z" fill="black"/>
<defs>
<linearGradient id="paint0_linear_182_2388" x1="109.033" y1="116.487" x2="71.238" y2="76.774" gradientUnits="userSpaceOnUse">
<stop offset="0.206718" stop-color="#D9D9D9"/>
<stop offset="1" stop-color="#FABE76"/>
</linearGradient>
</defs>
</svg>
