<svg width="52" height="50" viewBox="0 0 52 50" fill="none" xmlns="http://www.w3.org/2000/svg">
<path opacity="0.4" d="M49.0486 43.8043L32.7317 43.915C31.1398 43.9258 29.8534 45.1735 29.8637 46.6967C29.8741 48.2228 31.1773 49.45 32.7692 49.4392L49.0861 49.3285C50.678 49.3177 51.9645 48.0729 51.9541 46.5468C51.9438 45.0236 50.6406 43.7934 49.0486 43.8043Z" fill="black"/>
<path d="M21.0794 11.4705L36.621 23.1336C36.9959 23.4125 37.0631 23.9285 36.7744 24.2903L18.5968 46.9121C17.4539 48.3097 15.7612 49.1074 13.942 49.1488L3.93613 49.3328C3.40248 49.3422 2.93314 48.9972 2.80846 48.499L0.471025 39.2009C0.0652084 37.4918 0.447398 35.7193 1.59042 34.3478L19.8583 11.6181C20.153 11.2534 20.7014 11.1858 21.0794 11.4705Z" fill="black"/>
<path opacity="0.4" d="M43.4949 16.0733L40.5379 19.5984C40.2402 19.9573 39.7008 20.019 39.3259 19.7372C35.6835 16.9997 26.3566 9.97452 23.7688 8.02775C23.3908 7.74016 23.3358 7.22406 23.6366 6.86223L26.4884 3.48001C29.0747 0.299801 33.6212 -0.0212048 37.309 2.71022L41.5454 5.84413C43.2825 7.10901 44.4462 8.784 44.8524 10.5512C45.3204 12.4949 44.8482 14.4102 43.4949 16.0733Z" fill="black"/>
</svg>
