<svg width="70" height="62" viewBox="0 0 70 62" fill="none" xmlns="http://www.w3.org/2000/svg">
<path opacity="0.4" fill-rule="evenodd" clip-rule="evenodd" d="M54.1411 20.9857C47.8315 21.0127 42.6618 16.8825 42.6398 11.759L42.6126 5.403L62.927 20.9481L54.1411 20.9857ZM68.3075 21.4729C68.3069 21.3484 68.3065 21.255 68.2677 21.1307C68.1503 20.5709 68.0329 20.0111 67.9156 19.4824C67.8375 19.1404 67.6446 18.861 67.3369 18.6133L45.5301 1.89806C45.2609 1.68132 44.8769 1.52733 44.4934 1.49784C43.8415 1.43838 43.1512 1.37908 42.461 1.31978C42.3458 1.28915 42.1925 1.2898 42.0775 1.29029C39.8535 1.14418 37.3998 1.0613 34.8315 1.07229C9.685 1.17991 0.787388 9.1554 0.883305 31.5665C0.979089 53.9464 9.94478 61.8766 35.0913 61.769C60.2761 61.6612 69.1735 53.6546 69.0778 31.2746C69.0618 27.5394 68.8179 24.3033 68.3075 21.4729Z" fill="#FFC24C"/>
<path d="M38.796 36.3348C39.5282 36.3316 40.2632 36.1013 40.8209 35.6444C41.9402 34.7307 41.9415 33.2553 40.8145 32.345L31.7978 25.0533C31.2747 24.629 30.5529 24.3676 29.7556 24.371C28.9582 24.3744 28.2387 24.642 27.7192 25.0707L18.7614 32.4394C17.646 33.3593 17.6562 34.8347 18.7832 35.7388C19.9141 36.6428 21.7349 36.635 22.8504 35.7182L26.9148 32.3702L26.9711 45.5212C26.9766 46.8098 28.269 47.8502 29.856 47.8434C31.443 47.8366 32.7265 46.7852 32.721 45.4966L32.6647 32.3487L36.7576 35.6587C37.3192 36.1139 38.0562 36.3379 38.796 36.3348Z" fill="black"/>
</svg>
