<svg width="32" height="32" viewBox="0 0 32 32" fill="none" xmlns="http://www.w3.org/2000/svg">
<path fill-rule="evenodd" clip-rule="evenodd" d="M31 1.83333C31 1.3731 30.3215 1 29.4848 1H22.8182C19.2006 1 15.7333 1.7946 13.177 3.18918C10.6176 4.6 9.18182 6.5054 9.18182 8.5V13H2.51518C1.67836 13 1 13.3732 1 13.8333V18.1667C1 18.6268 1.67836 19 2.51515 19H9.18182V30.1667C9.18182 30.6268 9.86018 31 10.697 31H18.5758C19.4124 31 20.0909 30.6268 20.0909 30.1667V19H29.4848C30.3215 19 31 18.6268 31 18.1667V13.8333C31 13.3732 30.3215 13 29.4848 13H20.0909V8.5C20.0909 8.0946 20.377 7.72 20.89 7.4346C21.4 7.1654 22.0958 7 22.8182 7H29.4848C30.3215 7 31 6.6269 31 6.16667V1.83333Z" stroke="white" stroke-width="1.5" stroke-linecap="round" stroke-linejoin="round"/>
</svg>
