<svg width="57" height="54" viewBox="0 0 57 54" fill="none" xmlns="http://www.w3.org/2000/svg">
<path d="M16.48 36.5921L19.7741 36.593L19.7733 39.3825L16.4792 39.3816L16.48 36.5921Z" fill="white"/>
<path fill-rule="evenodd" clip-rule="evenodd" d="M13.1958 0.328063C10.8026 0.327409 8.70716 1.40736 7.55284 3.0234L8.05285 3.75719C9.38061 3.99306 10.5888 4.68826 11.3202 5.76166L12.9666 8.17786C13.698 9.25126 13.8041 10.4849 13.3808 11.5763L13.984 12.4616C14.5884 11.8647 15.4855 11.4866 16.4868 11.4869L19.7809 11.4878C21.6002 11.4883 23.0747 12.7376 23.0743 14.2781L23.0735 17.0676C23.0731 18.6082 21.5979 19.8567 19.7787 19.8562L19.0225 19.856L21.0297 22.8017L21.0762 22.8711C22.2498 23.2981 23.0716 24.2859 23.0713 25.436L23.0705 28.2255C23.0701 29.7661 21.5949 31.0146 19.7756 31.0141L16.4815 31.0132C14.6622 31.0127 13.1877 29.7634 13.1881 28.2228L13.1882 27.8396C12.9185 27.5749 12.6779 27.2884 12.4702 26.9836L6.60259 18.3724L6.59609 42.1684C6.59525 45.2495 9.54422 47.7481 13.1828 47.7491L49.4181 47.759C53.0567 47.76 56.007 45.263 56.0079 42.1819L56.0178 5.91871C56.0186 2.83754 53.0696 0.338958 49.4311 0.337964L13.1958 0.328063ZM14.8413 5.90746C13.9316 5.90721 13.1941 6.53146 13.1939 7.30175C13.1936 8.07204 13.9309 8.69669 14.8405 8.69693L47.7817 8.70594C48.6914 8.70618 49.4289 8.08194 49.4291 7.31165C49.4294 6.54136 48.6921 5.91671 47.7825 5.91646L14.8413 5.90746ZM28.0162 11.49C27.1066 11.4898 26.369 12.114 26.3688 12.8843C26.3686 13.6546 27.1058 14.2792 28.0155 14.2795L47.7802 14.2849C48.6898 14.2851 49.4274 13.6609 49.4276 12.8906C49.4278 12.1203 48.6906 11.4957 47.7809 11.4954L28.0162 11.49ZM28.0132 22.6479C27.1035 22.6477 26.366 23.2719 26.3658 24.0422C26.3655 24.8125 27.1028 25.4371 28.0124 25.4374L47.7771 25.4428C48.6868 25.443 49.4244 24.8188 49.4246 24.0485C49.4248 23.2782 48.6875 22.6536 47.7779 22.6533L28.0132 22.6479ZM28.0101 33.8058C27.1005 33.8056 26.3629 34.4298 26.3627 35.2001C26.3625 35.9704 27.0997 36.595 28.0094 36.5953L47.7741 36.6007C48.6837 36.6009 49.4213 35.9767 49.4215 35.2064C49.4217 34.4361 48.6845 33.8114 47.7748 33.8112L28.0101 33.8058ZM28.0147 17.069C27.1051 17.0687 26.3675 17.693 26.3673 18.4632C26.3671 19.2335 27.1043 19.8582 28.014 19.8584L46.1316 19.8634C47.0412 19.8636 47.7788 19.2394 47.779 18.4691C47.7792 17.6988 47.042 17.0742 46.1324 17.0739L28.0147 17.069ZM28.0117 28.2269C27.102 28.2266 26.3644 28.8508 26.3642 29.6211C26.364 30.3914 27.1013 31.0161 28.0109 31.0163L44.4815 31.0208C45.3911 31.0211 46.1287 30.3968 46.1289 29.6265C46.1291 28.8562 45.3919 28.2316 44.4823 28.2314L28.0117 28.2269ZM28.0086 39.3847C27.099 39.3845 26.3614 40.0087 26.3612 40.779C26.361 41.5493 27.0982 42.174 28.0079 42.1742L46.1255 42.1792C47.0351 42.1794 47.7727 41.5552 47.7729 40.7849C47.7732 40.0146 47.0359 39.3899 46.1263 39.3897L28.0086 39.3847ZM16.4807 33.8026C14.6614 33.8022 13.1863 35.0506 13.1858 36.5912L13.1851 39.3807C13.1847 40.9213 14.6592 42.1706 16.4784 42.1711L19.7726 42.172C21.5919 42.1725 23.067 40.924 23.0674 39.3834L23.0682 36.5939C23.0686 35.0533 21.5941 33.804 19.7748 33.8035L16.4807 33.8026Z" fill="white"/>
<path d="M17.1214 17.066L16.4856 16.1328L16.4861 14.2763L19.7802 14.2772L19.7794 17.0667L17.1214 17.066Z" fill="white"/>
<path d="M3.30979 13.54L0.728005 9.75103C0.282532 10.2266 0.0164172 10.8282 0.0162385 11.4824L0.00747356 43.5613C0.0060003 48.9534 5.1667 53.3259 11.5342 53.3276L42.8283 53.3362C44.6476 53.3367 46.1228 52.0882 46.1232 50.5476L11.535 50.5381C6.98675 50.5369 3.30054 47.4137 3.30159 43.5622L3.30979 13.54Z" fill="white"/>
<path d="M2.32106 3.71716C1.53318 4.10209 1.26304 4.95503 1.71768 5.62224L15.3234 25.5896C15.579 25.9647 15.9342 26.2843 16.3609 26.523L18.7851 27.8792L18.6116 25.4234C18.5811 24.9911 18.4322 24.5707 18.1766 24.1956L9.51004 11.4769C10.2979 11.092 10.5681 10.239 10.1134 9.57182L8.46703 7.15562C8.01239 6.4884 7.00513 6.25956 6.21725 6.64449L4.57085 4.22829C4.11621 3.56107 3.10894 3.33223 2.32106 3.71716Z" fill="white"/>
</svg>
