<svg width="572" height="134" viewBox="0 0 572 134" fill="none" xmlns="http://www.w3.org/2000/svg">
<g filter="url(#filter0_d_814_16943)">
<rect width="559.207" height="118.935" rx="12" transform="matrix(1 -0.000830347 0.000941329 1 6.16028 4.85529)" fill="url(#paint0_linear_814_16943)"/>
</g>
<path d="M89.5127 49.9476L93.2334 49.946L98.7215 65.6028L104.19 49.9413L107.911 49.9397L100.219 71.2711L97.2309 71.2724L89.5127 49.9476ZM87.5059 49.9484L91.2119 49.9468L91.8951 65.2102L91.8988 71.2747L87.519 71.2766L87.5059 49.9484ZM106.212 49.9404L109.933 49.9388L109.946 71.2669L105.551 71.2688L105.547 65.2044L106.212 49.9404ZM128.108 67.8314L128.11 71.2591L116.757 71.264L116.755 67.8363L128.108 67.8314ZM118.18 49.9353L118.193 71.2634L113.798 71.2653L113.785 49.9372L118.18 49.9353ZM126.623 58.6182L126.625 61.958L116.752 61.9623L116.749 58.6224L126.623 58.6182ZM128.082 49.931L128.084 53.3734L116.746 53.3783L116.744 49.9359L128.082 49.931ZM132.667 49.929L136.388 49.9275L141.876 65.5843L147.345 49.9227L151.065 49.9211L143.373 71.2526L140.385 71.2539L132.667 49.929ZM130.66 49.9299L134.366 49.9283L135.049 65.1917L135.053 71.2562L130.673 71.258L130.66 49.9299ZM149.366 49.9219L153.087 49.9203L153.1 71.2484L148.705 71.2503L148.702 65.1858L149.366 49.9219ZM165.296 61.8828L159.818 61.8852L159.787 58.8676L164.386 58.8656C165.197 58.8653 165.861 58.7625 166.378 58.5572C166.896 58.3421 167.281 58.0343 167.535 57.6338C167.798 57.2235 167.93 56.7254 167.93 56.1395C167.929 55.4754 167.802 54.9384 167.548 54.5283C167.303 54.1183 166.917 53.8206 166.39 53.6353C165.872 53.4499 165.203 53.3575 164.383 53.3578L161.336 53.3591L161.347 71.2449L156.953 71.2467L156.939 49.9186L164.381 49.9154C165.621 49.9149 166.73 50.0316 167.706 50.2656C168.693 50.4995 169.528 50.8556 170.212 51.3338C170.896 51.812 171.419 52.4173 171.78 53.1496C172.142 53.8721 172.323 54.7314 172.324 55.7274C172.324 56.6064 172.125 57.417 171.725 58.1593C171.335 58.9017 170.715 59.5074 169.866 59.9766C169.026 60.4457 167.928 60.7049 166.57 60.7543L165.296 61.8828ZM165.112 71.2432L158.622 71.246L160.334 67.8176L165.11 67.8155C165.881 67.8152 166.511 67.6928 166.999 67.4485C167.487 67.1944 167.848 66.8524 168.082 66.4226C168.317 65.9928 168.433 65.4996 168.433 64.943C168.433 64.318 168.325 63.776 168.11 63.3172C167.904 62.8583 167.572 62.5068 167.113 62.2629C166.654 62.0092 166.048 61.8825 165.296 61.8828L161.063 61.8846L161.09 58.867L166.364 58.8648L167.375 60.0509C168.674 60.0308 169.719 60.2598 170.511 60.738C171.312 61.2064 171.893 61.8165 172.255 62.5683C172.626 63.3201 172.812 64.1257 172.813 64.9851C172.814 66.3522 172.517 67.5047 171.922 68.4425C171.326 69.3705 170.453 70.0691 169.301 70.5383C168.158 71.0076 166.762 71.2425 165.112 71.2432ZM190.422 67.8046L190.424 71.2324L179.072 71.2372L179.07 67.8095L190.422 67.8046ZM180.494 49.9085L180.507 71.2366L176.113 71.2385L176.1 49.9104L180.494 49.9085ZM188.937 58.5914L188.939 61.9313L179.066 61.9355L179.064 58.5956L188.937 58.5914ZM190.396 49.9043L190.399 53.3466L179.061 53.3515L179.059 49.9091L190.396 49.9043ZM192.975 49.9032L200.929 49.8997C202.56 49.899 203.961 50.1426 205.133 50.6304C206.315 51.1181 207.224 51.8404 207.859 52.7972C208.495 53.7539 208.813 54.9305 208.814 56.327C208.814 57.4696 208.62 58.4511 208.229 59.2716C207.849 60.0823 207.307 60.7613 206.605 61.3084C205.912 61.8458 205.096 62.2759 204.159 62.5985L202.768 63.3316L195.854 63.3345L195.823 59.9068L200.964 59.9046C201.736 59.9043 202.375 59.7673 202.883 59.4936C203.39 59.22 203.771 58.8389 204.025 58.3506C204.288 57.8622 204.42 57.2957 204.419 56.6512C204.419 55.9676 204.291 55.3768 204.037 54.8789C203.783 54.3809 203.397 54.0002 202.879 53.7368C202.362 53.4733 201.712 53.3418 200.931 53.3421L197.371 53.3436L197.382 71.2294L192.988 71.2313L192.975 49.9032ZM204.912 71.2262L200.042 61.7214L204.686 61.6901L209.614 71.0191L209.614 71.2241L204.912 71.2262ZM223.307 65.6372C223.306 65.2563 223.248 64.9146 223.13 64.6119C223.023 64.2994 222.817 64.0163 222.514 63.7625C222.211 63.499 221.787 63.2404 221.239 62.9867C220.692 62.733 219.984 62.4697 219.115 62.1966C218.148 61.8845 217.23 61.5334 216.36 61.1431C215.501 60.7529 214.739 60.2991 214.074 59.7818C213.42 59.2547 212.902 58.6446 212.521 57.9514C212.149 57.2582 211.963 56.4526 211.962 55.5346C211.962 54.646 212.157 53.8402 212.547 53.1174C212.937 52.3848 213.484 51.7596 214.186 51.2417C214.889 50.7141 215.719 50.3084 216.676 50.0248C217.643 49.7412 218.702 49.5991 219.854 49.5986C221.427 49.598 222.799 49.8806 223.971 50.4465C225.143 51.0124 226.052 51.7884 226.697 52.7744C227.352 53.7605 227.68 54.8883 227.681 56.1578L223.315 56.1597C223.315 55.5347 223.183 54.9878 222.919 54.5192C222.665 54.0408 222.274 53.665 221.746 53.3918C221.229 53.1186 220.574 52.9821 219.783 52.9825C219.021 52.9828 218.387 53.1002 217.879 53.3348C217.371 53.5597 216.991 53.8674 216.737 54.2582C216.483 54.6392 216.357 55.0689 216.357 55.5474C216.357 55.9087 216.445 56.2358 216.621 56.5287C216.807 56.8216 217.081 57.095 217.442 57.3487C217.804 57.6025 218.248 57.8415 218.776 58.0659C219.303 58.2903 219.914 58.5097 220.607 58.7243C221.769 59.0754 222.79 59.4704 223.669 59.9095C224.558 60.3486 225.301 60.8414 225.897 61.388C226.493 61.9347 226.942 62.5546 227.246 63.2478C227.549 63.941 227.701 64.7271 227.701 65.606C227.702 66.5338 227.521 67.3639 227.161 68.0965C226.8 68.8291 226.278 69.4494 225.594 69.9575C224.911 70.4656 224.096 70.8517 223.149 71.1158C222.202 71.3799 221.142 71.5122 219.97 71.5127C218.916 71.5131 217.875 71.3768 216.85 71.1038C215.824 70.8211 214.891 70.3967 214.051 69.8306C213.221 69.2646 212.556 68.5422 212.058 67.6635C211.559 66.7848 211.31 65.7449 211.309 64.5437L215.718 64.5418C215.718 65.2059 215.821 65.7674 216.027 66.2263C216.232 66.6852 216.52 67.0561 216.892 67.3392C217.273 67.6222 217.722 67.8271 218.24 67.9538C218.767 68.0806 219.343 68.1438 219.968 68.1435C220.73 68.1432 221.355 68.0355 221.843 67.8204C222.341 67.6054 222.707 67.3074 222.941 66.9264C223.185 66.5455 223.307 66.1157 223.307 65.6372Z" fill="white"/>
<g clip-path="url(#clip0_814_16943)">
<path fill-rule="evenodd" clip-rule="evenodd" d="M464.706 32.3329C460.076 32.3349 456.326 36.4836 456.329 41.5993L456.352 78.6508C456.355 83.7665 460.11 87.912 464.74 87.91L523.415 87.8848C528.045 87.8828 531.795 83.7341 531.792 78.6184L531.769 41.5669C531.766 36.4512 528.011 32.3057 523.381 32.3077L464.706 32.3329ZM519.102 48.5195C519.104 52.3563 516.292 55.4679 512.82 55.4694C509.347 55.4709 506.531 52.3617 506.529 48.5249C506.526 44.6881 509.339 41.5766 512.811 41.5751C516.283 41.5736 519.1 44.6827 519.102 48.5195ZM502.567 63.5207C501.92 60.6038 503.917 57.7889 506.634 57.7877L519.008 57.7824C521.725 57.7813 523.726 60.5944 523.082 63.5118L520.528 75.0915C520.071 77.1649 518.391 78.6241 516.459 78.6249L509.208 78.6281C507.277 78.6289 505.595 77.1711 505.135 75.0981L502.567 63.5207ZM464.714 46.2272C464.713 44.9482 465.651 43.9111 466.808 43.9106L496.146 43.898C497.304 43.8975 498.242 44.9338 498.243 46.2128C498.244 47.4917 497.306 48.5289 496.149 48.5294L466.811 48.542C465.654 48.5425 464.715 47.5061 464.714 46.2272ZM466.814 53.1734C465.657 53.1739 464.719 54.2111 464.72 55.49C464.721 56.769 465.659 57.8053 466.817 57.8048L487.772 57.7958C488.93 57.7953 489.867 56.7582 489.867 55.4792C489.866 54.2003 488.927 53.1639 487.77 53.1644L466.814 53.1734ZM466.212 71.6994C465.394 72.6041 465.395 74.0703 466.214 74.9743C467.032 75.8783 468.359 75.8777 469.177 74.973L469.923 74.1478C470.025 74.4486 470.186 74.7307 470.405 74.9725C471.224 75.8765 472.55 75.8759 473.368 74.9712L474.114 74.146C474.216 74.4468 474.377 74.7289 474.596 74.9707C475.415 75.8747 476.742 75.8741 477.559 74.9694L478.305 74.1442C478.407 74.445 478.568 74.7271 478.787 74.9689C479.606 75.8729 480.933 75.8723 481.75 74.9676L482.496 74.1424C482.598 74.4432 482.759 74.7253 482.978 74.9671C483.797 75.8711 485.124 75.8705 485.942 74.9658L486.688 74.1406C486.79 74.4414 486.95 74.7235 487.169 74.9653C487.988 75.8693 489.315 75.8687 490.133 74.964L490.879 74.1388C490.981 74.4396 491.141 74.7217 491.36 74.9635C492.179 75.8675 493.506 75.8669 494.324 74.9622L495.805 73.3241C496.622 72.4194 496.622 70.9532 495.803 70.0492C494.984 69.1452 493.657 69.1458 492.839 70.0505L492.093 70.8757C491.991 70.5749 491.831 70.2928 491.612 70.051C490.793 69.147 489.466 69.1476 488.648 70.0523L487.902 70.8775C487.8 70.5767 487.639 70.2946 487.42 70.0528C486.601 69.1488 485.275 69.1494 484.457 70.0541L483.711 70.8793C483.609 70.5785 483.448 70.2964 483.229 70.0546C482.41 69.1506 481.084 69.1512 480.266 70.0559L479.52 70.8811C479.418 70.5803 479.257 70.2982 479.038 70.0564C478.219 69.1524 476.892 69.153 476.075 70.0577L475.329 70.8829C475.227 70.5821 475.066 70.3 474.847 70.0582C474.028 69.1542 472.701 69.1548 471.883 70.0595L471.137 70.8847C471.035 70.5839 470.875 70.3018 470.656 70.06C469.837 69.156 468.51 69.1566 467.692 70.0613L466.212 71.6994Z" fill="#2B2B2B"/>
</g>
<defs>
<filter id="filter0_d_814_16943" x="0.171509" y="0.40094" width="571.296" height="131.379" filterUnits="userSpaceOnUse" color-interpolation-filters="sRGB">
<feFlood flood-opacity="0" result="BackgroundImageFix"/>
<feColorMatrix in="SourceAlpha" type="matrix" values="0 0 0 0 0 0 0 0 0 0 0 0 0 0 0 0 0 0 127 0" result="hardAlpha"/>
<feOffset dy="2"/>
<feGaussianBlur stdDeviation="3"/>
<feComposite in2="hardAlpha" operator="out"/>
<feColorMatrix type="matrix" values="0 0 0 0 0.862745 0 0 0 0 0.133333 0 0 0 0 0.396078 0 0 0 0.36 0"/>
<feBlend mode="normal" in2="BackgroundImageFix" result="effect1_dropShadow_814_16943"/>
<feBlend mode="normal" in="SourceGraphic" in2="effect1_dropShadow_814_16943" result="shape"/>
</filter>
<linearGradient id="paint0_linear_814_16943" x1="279.604" y1="0" x2="279.604" y2="118.935" gradientUnits="userSpaceOnUse">
<stop stop-color="#E93B77"/>
<stop offset="1" stop-color="#DA1F63"/>
</linearGradient>
<clipPath id="clip0_814_16943">
<rect width="100.587" height="111.154" fill="white" transform="matrix(1 -0.000429391 0.000612985 1 443.733 4.55334)"/>
</clipPath>
</defs>
</svg>
