<svg width="40" height="54" viewBox="0 0 40 54" fill="none" xmlns="http://www.w3.org/2000/svg">
<path d="M6.04075 3.92363L21.6407 3.87446C23.0766 3.86993 24.2447 5.15966 24.2498 6.75514L24.2737 14.3574C24.2762 15.1552 24.8603 15.8 25.5783 15.7978C26.2962 15.7955 26.8762 15.147 26.8737 14.3492L26.8498 6.74694C26.8397 3.55598 24.5034 0.97653 21.6316 0.985583L6.03164 1.03476C3.15977 1.04381 0.839819 3.63793 0.849878 6.8289L0.977365 47.2731C0.987423 50.4641 3.32369 53.0436 6.19555 53.0345L21.7955 52.9853C24.6673 52.9763 26.9873 50.3822 26.9772 47.1912L26.9533 39.5889C26.9508 38.7911 26.3667 38.1463 25.6487 38.1485C24.9308 38.1508 24.3508 38.7993 24.3533 39.5971L24.3773 47.1994C24.3823 48.7949 23.2223 50.0919 21.7864 50.0965L6.18645 50.1456C4.75051 50.1502 3.58238 48.8604 3.57735 47.2649L3.44986 6.8207C3.44484 5.22522 4.60481 3.92816 6.04075 3.92363Z" fill="#2B2B2B"/>
<path d="M12.5453 5.34758C11.8273 5.34984 11.2473 5.99837 11.2498 6.79611C11.2523 7.59385 11.8364 8.23872 12.5544 8.23645L15.1544 8.22826C15.8723 8.226 16.4523 7.57746 16.4498 6.77972C16.4473 5.98198 15.8632 5.33712 15.1453 5.33938L12.5453 5.34758Z" fill="#2B2B2B"/>
<path d="M26.1497 34.3861C26.663 34.3845 27.1653 34.5517 27.5934 34.8667L32.7292 38.646C33.5952 39.2832 34.7502 38.5915 34.7465 37.4378L34.6816 16.8358C34.678 15.6822 33.5186 14.9977 32.6567 15.6404L27.5448 19.452C27.1187 19.7697 26.6174 19.9401 26.1041 19.9417L16.4914 19.972C15.0555 19.9765 13.8955 21.2736 13.9005 22.8691L13.9278 31.5357C13.9329 33.1312 15.101 34.4209 16.5369 34.4164L19.1369 34.4082L17.9984 36.9597C17.3353 38.4457 18.312 40.1886 19.8051 40.1839L22.3869 34.3979L26.1497 34.3861Z" fill="#2B2B2B"/>
<path d="M37.2958 21.3509C38.7318 21.3464 39.8999 22.6361 39.9049 24.2316L39.9231 30.0093C39.9282 31.6048 38.7682 32.9019 37.3323 32.9064L37.2958 21.3509Z" fill="#2B2B2B"/>
</svg>
