<svg width="72" height="72" viewBox="0 0 72 72" fill="none" xmlns="http://www.w3.org/2000/svg">
<rect width="72" height="72" fill="white"/>
<path d="M13.0498 19.5C13.0498 16.1863 15.7361 13.5 19.0498 13.5L55.0498 13.5C58.3635 13.5 61.0498 16.1863 61.0498 19.5V42C61.0498 45.3137 58.3635 48 55.0498 48H38.9707L44.2211 54.563C44.7386 55.2098 44.6338 56.1538 43.9869 56.6713C43.34 57.1888 42.396 57.0839 41.8785 56.437L37.0498 50.4012L32.2211 56.437C31.7036 57.0839 30.7597 57.1888 30.1128 56.6713C29.4659 56.1538 29.361 55.2099 29.8785 54.563L35.1288 48H26.1374L26.5748 45H55.0498C56.7066 45 58.0498 43.6569 58.0498 42V19.5C58.0498 17.8432 56.7066 16.5 55.0498 16.5L19.0498 16.5C17.393 16.5 16.0498 17.8431 16.0498 19.5V22.829C14.9105 23.1787 13.8867 23.7925 13.0498 24.5989V19.5Z" fill="#2B2B2B"/>
<path d="M22.7535 30C22.7535 32.4853 20.7388 34.5 18.2535 34.5C15.7682 34.5 13.7535 32.4853 13.7535 30C13.7535 27.5147 15.7682 25.5 18.2535 25.5C20.7388 25.5 22.7535 27.5147 22.7535 30Z" fill="#2B2B2B"/>
<path d="M17.3959 58.5C15.9409 58.5 14.6413 57.4718 14.3732 56.0529L13.3721 49.5L10.6887 46.0844C10.1478 45.3959 9.93599 44.5078 10.1085 43.6517L11.3486 37.5C11.8668 36.6122 13.2392 36 14.3732 36H15.8841L18.1519 43.5L20.4196 36H22.8016C23.2247 36 23.643 36.0881 24.0296 36.2586L30.2465 39L34.8127 36.4112C35.2416 36.168 35.7798 36.24 36.1298 36.5872C36.6117 37.0653 36.5496 37.8616 35.9995 38.2592L31.4864 41.5215C30.7071 42.0848 29.7038 42.2456 28.7854 41.9543L24.1992 40.5L21.9314 56.0529C21.6633 57.4718 20.3628 58.5 18.9078 58.5H17.3959Z" fill="#2B2B2B"/>
</svg>
